<svg version="1.1" id="Layer_1" xmlns="http://www.w3.org/2000/svg" xmlns:xlink="http://www.w3.org/1999/xlink" x="0px" y="0px"
	 width="100%" viewBox="0 0 180 180" enable-background="new 0 0 180 180" xml:space="preserve">
<path fill="#F6EFE0" opacity="1.000000" stroke="none" 
	d="
M99.000000,181.000000 
	C66.000000,181.000000 33.500004,181.000000 1.000004,181.000000 
	C1.000003,121.000008 1.000003,61.000011 1.000001,1.000012 
	C60.999989,1.000008 120.999977,1.000008 180.999969,1.000004 
	C180.999985,60.999989 180.999985,120.999977 181.000000,180.999985 
	C153.833328,181.000000 126.666664,181.000000 99.000000,181.000000 
M70.650146,28.336706 
	C70.460228,28.691414 70.270309,29.046120 70.035553,29.778887 
	C69.891296,30.031199 69.675331,30.136644 68.601791,30.106230 
	C67.800140,31.482660 66.998482,32.859093 66.172012,34.128101 
	C66.172012,34.128101 66.268997,34.180538 65.499817,34.189617 
	C65.029549,35.502842 64.559280,36.816067 64.067657,38.042767 
	C64.067657,38.042767 64.150116,38.076565 63.403332,38.153732 
	C62.268433,42.476055 60.510479,46.746140 60.142696,51.132778 
	C59.571735,57.942684 59.973080,57.975647 53.065887,57.992096 
	C51.241692,57.996437 49.304115,57.620125 47.622639,58.113705 
	C45.616428,58.702602 43.829620,60.038929 41.606995,61.101555 
	C41.606995,61.101555 41.263268,61.079567 40.757938,61.045921 
	C40.455029,61.249687 40.152119,61.453453 39.849213,61.657215 
	C40.115540,61.775116 40.381863,61.893013 40.681561,62.379845 
	C40.681561,62.379845 40.783775,62.735905 40.207073,63.063416 
	C38.495209,64.061356 36.783340,65.059288 34.954395,65.430901 
	C32.209251,64.731369 28.440321,67.726608 28.690006,70.483200 
	C28.710567,70.710213 29.506147,70.867027 29.708614,71.681938 
	C28.041758,74.531464 26.374901,77.380989 23.854900,80.187790 
	C19.898478,85.176224 20.308460,90.928123 21.857580,96.396767 
	C22.841610,99.870537 22.321556,104.811325 28.046602,106.149948 
	C28.433214,106.884422 28.819824,107.618896 29.095015,109.189262 
	C30.124218,110.954369 30.720585,113.460922 32.256710,114.357658 
	C39.329449,118.486481 46.397144,123.026535 55.213364,121.970337 
	C58.867889,121.532516 59.988777,122.936310 60.158352,126.676880 
	C60.387615,131.734070 61.396347,136.800690 62.571201,141.744308 
	C62.947155,143.326248 64.912506,144.530457 66.059265,145.967926 
	C66.059265,145.967926 66.102859,145.867416 66.047394,146.613464 
	C66.775986,147.353363 67.504578,148.093277 68.122002,148.939041 
	C68.122002,148.939041 68.180962,148.797302 68.082893,149.566467 
	C68.783241,153.563583 71.669327,154.621872 75.043816,154.901917 
	C75.043816,154.901917 75.143463,154.794800 75.162033,155.517822 
	C75.820747,156.197693 76.367355,157.070114 77.154922,157.528656 
	C89.697235,164.831299 108.362946,160.693024 116.494461,148.668396 
	C117.710777,146.869736 117.992401,144.438995 118.589203,142.170532 
	C118.589203,142.170532 118.655167,142.008270 119.439316,141.901962 
	C120.620682,138.600708 122.589981,135.356049 122.832039,131.987305 
	C123.492981,122.788841 123.243553,123.051010 132.473312,121.773880 
	C135.009140,121.422989 139.247284,122.912460 140.460434,117.947594 
	C140.460434,117.947594 140.934021,117.953598 141.289444,118.412224 
	C142.259125,118.152962 143.228806,117.893700 144.198486,117.634445 
	C143.835953,117.410995 143.473434,117.187553 143.395584,116.507370 
	C144.061127,116.275261 144.726654,116.043159 146.199646,115.937912 
	C146.469894,115.962456 146.740128,115.986992 147.744049,115.917648 
	C148.736542,114.504410 149.729034,113.091171 150.884140,111.857330 
	C150.884140,111.857330 150.683243,111.722176 151.459183,111.891098 
	C152.749847,111.070786 154.420609,110.533119 155.272980,109.386879 
	C164.853226,96.503853 164.349426,80.173683 153.552490,68.306015 
	C150.729706,65.203300 146.417557,63.455605 142.417236,61.071602 
	C142.417236,61.071602 142.042801,61.026005 141.932983,60.431896 
	C141.261368,60.660225 140.589767,60.888557 139.259369,61.159016 
	C138.856476,60.993584 138.453598,60.828156 138.007477,60.050167 
	C137.281403,59.755424 136.555313,59.460678 135.235535,59.144409 
	C134.840927,59.122532 134.446320,59.100651 133.599396,58.492325 
	C131.883865,58.026821 129.988098,56.848827 128.486420,57.228691 
	C123.883194,58.393108 122.717995,56.390335 122.995804,52.367107 
	C124.233536,34.442516 108.907501,15.981107 86.804070,19.215893 
	C82.696465,19.817030 78.983086,23.111963 75.050850,25.081589 
	C75.050850,25.081589 75.139503,25.097061 74.389755,25.042988 
	C73.640602,25.774067 72.891449,26.505146 72.082069,27.120523 
	C72.082069,27.120523 72.207916,27.086237 71.679237,27.282732 
	C71.483368,27.593245 71.287498,27.903757 71.063591,28.075983 
	C71.063591,28.075983 71.204552,28.069618 70.650146,28.336706 
z"/>
<path fill="#3E5AA9" opacity="1.000000" stroke="none" 
	d="
M69.387672,30.095224 
	C69.675331,30.136644 69.891296,30.031199 70.333733,29.449303 
	C70.822792,28.769684 71.013672,28.419653 71.204552,28.069618 
	C71.204552,28.069618 71.063591,28.075983 71.357925,28.068264 
	C71.837479,27.735777 72.022697,27.411007 72.207916,27.086239 
	C72.207916,27.086237 72.082069,27.120523 72.444504,27.169090 
	C73.584465,26.510792 74.361984,25.803925 75.139503,25.097061 
	C75.139503,25.097061 75.050850,25.081589 75.453613,25.108366 
	C79.511345,23.781492 83.078667,21.622507 86.836456,21.213549 
	C103.136742,19.439590 119.729362,30.668709 120.057510,48.233753 
	C120.262222,49.023319 120.524681,49.528442 120.748680,50.399643 
	C120.732956,51.500652 120.755692,52.235580 120.611099,53.220665 
	C120.537247,54.039425 120.630722,54.608028 120.636520,55.524803 
	C120.414108,56.576370 120.279373,57.279762 119.905212,58.090824 
	C119.446938,58.465504 119.228088,58.732513 118.729576,58.693375 
	C118.303146,56.084686 118.022545,53.781605 118.031837,51.479702 
	C118.083305,38.728123 112.562141,29.698011 100.628304,25.629374 
	C86.642876,20.861286 70.201294,27.932352 66.266075,42.258976 
	C64.641869,48.172092 65.350929,54.726109 64.767349,60.988937 
	C64.535927,60.989239 64.073280,60.974545 63.990356,60.696785 
	C63.635258,59.938259 63.363087,59.457489 63.015945,58.519920 
	C62.838932,54.065769 62.736885,50.068420 62.808342,45.721153 
	C63.033867,44.600479 63.085892,43.829723 63.141869,42.685066 
	C63.480583,40.899628 63.815353,39.488098 64.150116,38.076565 
	C64.150116,38.076565 64.067657,38.042767 64.374191,37.925095 
	C65.210152,36.598461 65.739578,35.389500 66.268997,34.180538 
	C66.268997,34.180538 66.172012,34.128101 66.499641,34.061951 
	C67.680740,32.695610 68.534210,31.395418 69.387672,30.095224 
z"/>
<path fill="#405DAD" opacity="1.000000" stroke="none" 
	d="
M35.071476,66.057228 
	C36.783340,65.059288 38.495209,64.061356 40.801743,62.939262 
	C42.071243,62.416058 42.746078,62.017002 43.809715,61.502434 
	C46.060276,61.030907 47.922039,60.674896 50.221169,60.492046 
	C52.512924,60.548206 54.367306,60.431198 56.612186,60.400501 
	C58.327652,60.669086 59.652615,60.851364 60.979202,61.247528 
	C60.980824,61.461407 61.033615,61.885910 61.024208,62.166573 
	C61.007057,62.634293 60.999313,62.821346 60.661510,63.003761 
	C59.891346,63.002296 59.451244,63.005463 58.548805,62.999420 
	C51.402576,62.816559 44.725105,62.673710 38.630569,67.018311 
	C24.690350,76.295639 22.122892,94.309288 32.470448,107.795425 
	C33.958572,109.734932 36.772957,110.656837 39.150589,112.353722 
	C44.626392,116.539619 50.720715,117.170387 57.429531,116.991287 
	C59.227772,116.988998 60.611050,116.981194 62.328796,116.984482 
	C63.109474,116.996468 63.555676,116.997353 63.961742,117.322739 
	C63.871223,117.859322 63.820839,118.071404 63.375237,118.338394 
	C49.855282,121.326691 38.678734,117.706512 29.206436,108.353371 
	C28.819824,107.618896 28.433214,106.884422 27.757439,105.644379 
	C26.254688,101.751564 25.041101,98.364326 23.872025,94.736145 
	C23.916534,94.495216 23.715542,94.048309 23.775400,93.597351 
	C23.808672,90.417786 23.782085,87.689186 23.869175,84.735901 
	C23.959623,84.344971 23.936398,84.178726 24.058741,83.651344 
	C24.372219,82.270317 24.540131,81.250412 24.708042,80.230515 
	C26.374901,77.380989 28.041758,74.531464 30.121891,71.217178 
	C32.047268,69.187355 33.559372,67.622292 35.071476,66.057228 
z"/>
<path fill="#435FAC" opacity="1.000000" stroke="none" 
	d="
M118.655167,142.008270 
	C118.655167,142.008270 118.589203,142.170532 118.345551,142.428650 
	C111.151688,153.666245 101.361664,159.755173 88.198639,158.769653 
	C83.772530,158.438263 79.491051,156.175064 75.143463,154.794800 
	C75.143463,154.794800 75.043816,154.901917 74.964859,154.569489 
	C72.650917,152.423798 70.415939,150.610550 68.180962,148.797302 
	C68.180962,148.797302 68.122002,148.939041 68.139359,148.563690 
	C67.472107,147.414703 66.787483,146.641052 66.102859,145.867416 
	C66.102859,145.867416 66.059265,145.967926 66.070023,145.562469 
	C65.067207,141.437500 64.053642,137.717957 63.348778,133.999756 
	C64.067635,134.005951 64.477783,134.010849 65.059273,134.349747 
	C66.850304,140.846512 68.541161,147.113251 74.492989,150.589905 
	C82.745186,155.410248 91.188065,157.821167 100.988708,154.205490 
	C110.175751,150.816223 117.892014,141.397919 118.082382,131.474991 
	C118.156418,127.615387 118.864891,123.767967 119.483665,119.935745 
	C119.682961,119.956490 120.081879,119.994713 120.095062,120.416550 
	C119.905945,127.060791 119.703651,133.283188 119.313171,139.707458 
	C119.040131,140.261932 118.955276,140.614548 118.763931,141.216553 
	C118.656693,141.646713 118.655930,141.827499 118.655167,142.008270 
z"/>
<path fill="#EFF2FA" opacity="1.000000" stroke="none" 
	d="
M120.778427,52.970512 
	C120.755692,52.235580 120.732956,51.500652 120.974030,50.251129 
	C120.863640,49.140797 120.489449,48.545052 120.115250,47.949310 
	C119.729362,30.668709 103.136742,19.439590 86.836456,21.213549 
	C83.078667,21.622507 79.511345,23.781492 75.472069,25.149401 
	C78.983086,23.111963 82.696465,19.817030 86.804070,19.215893 
	C108.907501,15.981107 124.233536,34.442516 122.995804,52.367107 
	C122.717995,56.390335 123.883194,58.393108 128.486420,57.228691 
	C129.988098,56.848827 131.883865,58.026821 133.375549,58.795807 
	C130.043884,59.549786 126.936050,60.000286 123.480652,60.593254 
	C122.408417,60.930897 121.683746,61.126076 120.848358,61.027840 
	C120.502647,60.156166 120.267670,59.577915 120.142288,58.754528 
	C120.216141,58.333973 120.180389,58.158562 120.144638,57.983154 
	C120.279373,57.279762 120.414108,56.576370 120.847610,55.398735 
	C121.023727,54.273163 120.901077,53.621838 120.778427,52.970512 
z"/>
<path fill="#3855A6" opacity="1.000000" stroke="none" 
	d="
M140.934021,117.953598 
	C140.934021,117.953598 140.460434,117.947594 139.845551,118.055038 
	C133.179504,118.319153 127.128357,118.475830 120.945580,118.457619 
	C120.549446,118.157684 120.288406,118.025795 120.110245,117.535309 
	C123.506401,117.122787 126.830345,117.181076 130.138657,116.980949 
	C145.686432,116.040428 158.493805,104.613503 156.836700,89.573013 
	C156.180115,83.613548 153.618744,77.863945 152.209473,72.005547 
	C152.684265,71.984398 152.874207,71.976494 153.363419,72.139626 
	C155.099869,75.237228 157.013077,78.028648 157.889236,81.114517 
	C161.140671,92.566170 158.494019,102.792229 150.683243,111.722176 
	C150.683243,111.722176 150.884140,111.857330 150.501526,111.841583 
	C149.025131,112.760101 147.931351,113.694366 146.528198,114.730812 
	C145.943298,115.159019 145.667740,115.485039 145.392197,115.811050 
	C144.726654,116.043159 144.061127,116.275261 142.942352,116.750916 
	C141.970749,117.314178 141.452377,117.633888 140.934021,117.953598 
z"/>
<path fill="#E1E7F6" opacity="1.000000" stroke="none" 
	d="
M63.040073,133.998428 
	C64.053642,137.717957 65.067207,141.437500 66.115707,145.532257 
	C64.912506,144.530457 62.947155,143.326248 62.571201,141.744308 
	C61.396347,136.800690 60.387615,131.734070 60.158352,126.676880 
	C59.988777,122.936310 58.867889,121.532516 55.213364,121.970337 
	C46.397144,123.026535 39.329449,118.486481 32.256710,114.357658 
	C30.720585,113.460922 30.124218,110.954369 29.150726,108.771317 
	C38.678734,117.706512 49.855282,121.326691 63.396019,118.545837 
	C63.812016,118.698357 64.041992,119.044815 63.958252,119.432129 
	C63.551865,122.204582 63.229221,124.589737 62.801941,127.388123 
	C62.754169,129.215286 62.811028,130.629227 62.808609,132.372665 
	C62.846252,133.134262 62.943161,133.566345 63.040073,133.998428 
z"/>
<path fill="#EFF2FA" opacity="1.000000" stroke="none" 
	d="
M151.071213,111.806641 
	C158.494019,102.792229 161.140671,92.566170 157.889236,81.114517 
	C157.013077,78.028648 155.099869,75.237228 153.315857,71.791618 
	C149.643631,68.520294 146.318253,65.768005 142.953888,62.694050 
	C142.873077,61.943459 142.831238,61.514526 142.789398,61.085594 
	C146.417557,63.455605 150.729706,65.203300 153.552490,68.306015 
	C164.349426,80.173683 164.853226,96.503853 155.272980,109.386879 
	C154.420609,110.533119 152.749847,111.070786 151.071213,111.806641 
z"/>
<path fill="#E1E7F6" opacity="1.000000" stroke="none" 
	d="
M75.152748,155.156311 
	C79.491051,156.175064 83.772530,158.438263 88.198639,158.769653 
	C101.361664,159.755173 111.151688,153.666245 118.404160,142.493713 
	C117.992401,144.438995 117.710777,146.869736 116.494461,148.668396 
	C108.362946,160.693024 89.697235,164.831299 77.154922,157.528656 
	C76.367355,157.070114 75.820747,156.197693 75.152748,155.156311 
z"/>
<path fill="#E1E7F6" opacity="1.000000" stroke="none" 
	d="
M121.077209,118.632507 
	C127.128357,118.475830 133.179504,118.319153 139.653351,118.193390 
	C139.247284,122.912460 135.009140,121.422989 132.473312,121.773880 
	C123.243553,123.051010 123.492981,122.788841 122.832039,131.987305 
	C122.589981,135.356049 120.620682,138.600708 119.047241,141.955109 
	C118.655930,141.827499 118.656693,141.646713 119.008102,141.048950 
	C119.406296,140.256500 119.453827,139.881042 119.501358,139.505600 
	C119.703651,133.283188 119.905945,127.060791 120.333069,120.248795 
	C120.731003,119.316978 120.904106,118.974747 121.077209,118.632507 
z"/>
<path fill="#EFF2FA" opacity="1.000000" stroke="none" 
	d="
M60.977581,61.033646 
	C59.652615,60.851364 58.327652,60.669086 56.407181,60.153603 
	C53.802387,59.986557 51.793091,60.152721 49.783798,60.318886 
	C47.922039,60.674896 46.060276,61.030907 43.456863,61.319153 
	C42.459393,61.184746 42.203579,61.118107 41.947765,61.051472 
	C43.829620,60.038929 45.616428,58.702602 47.622639,58.113705 
	C49.304115,57.620125 51.241692,57.996437 53.065887,57.992096 
	C59.973080,57.975647 59.571735,57.942684 60.142696,51.132778 
	C60.510479,46.746140 62.268433,42.476055 63.776726,38.115150 
	C63.815353,39.488098 63.480583,40.899628 62.900032,42.851269 
	C62.647781,44.284611 62.641308,45.177841 62.634834,46.071072 
	C62.736885,50.068420 62.838932,54.065769 62.755707,58.667267 
	C62.039486,59.858822 61.508533,60.446232 60.977581,61.033646 
z"/>
<path fill="#4561B0" opacity="1.000000" stroke="none" 
	d="
M142.992874,63.015709 
	C146.318253,65.768005 149.643631,68.520294 153.016571,71.620590 
	C152.874207,71.976494 152.684265,71.984398 151.872681,71.951492 
	C143.462234,65.112534 134.437592,62.132271 124.105652,62.891338 
	C123.100670,62.965168 122.009987,61.872467 120.959084,61.321259 
	C121.683746,61.126076 122.408417,60.930897 123.943398,60.716427 
	C128.554932,60.632793 132.356155,60.568451 136.465256,60.598412 
	C137.198990,60.682720 137.624847,60.672722 138.050705,60.662724 
	C138.453598,60.828156 138.856476,60.993584 139.729340,61.295128 
	C140.199310,61.431240 140.598434,61.563591 140.794464,61.775841 
	C141.657959,62.330631 142.325424,62.673168 142.992874,63.015709 
z"/>
<path fill="#E1E7F6" opacity="1.000000" stroke="none" 
	d="
M24.281471,80.209152 
	C24.540131,81.250412 24.372219,82.270317 23.915100,83.727394 
	C23.388350,84.460564 23.431553,84.725906 23.755501,84.960587 
	C23.782085,87.689186 23.808672,90.417786 23.662552,93.701500 
	C23.374138,94.586403 23.486694,94.826561 23.827513,94.977081 
	C25.041101,98.364326 26.254688,101.751564 27.532860,105.518974 
	C22.321556,104.811325 22.841610,99.870537 21.857580,96.396767 
	C20.308460,90.928123 19.898478,85.176224 24.281471,80.209152 
z"/>
<path fill="#B6C2E9" opacity="1.000000" stroke="none" 
	d="
M136.157379,60.504105 
	C132.356155,60.568451 128.554932,60.632793 124.290970,60.573967 
	C126.936050,60.000286 130.043884,59.549786 133.601715,59.089027 
	C134.446320,59.100651 134.840927,59.122532 135.597687,59.375519 
	C136.083267,59.893108 136.149109,60.192265 136.157379,60.504105 
z"/>
<path fill="#E1E7F6" opacity="1.000000" stroke="none" 
	d="
M35.012936,65.744064 
	C33.559372,67.622292 32.047268,69.187355 30.238394,70.904434 
	C29.506147,70.867027 28.710567,70.710213 28.690006,70.483200 
	C28.440321,67.726608 32.209251,64.731369 35.012936,65.744064 
z"/>
<path fill="#E1E7F6" opacity="1.000000" stroke="none" 
	d="
M68.131927,149.181885 
	C70.415939,150.610550 72.650917,152.423798 75.031868,154.540161 
	C71.669327,154.621872 68.783241,153.563583 68.131927,149.181885 
z"/>
<path fill="#EFF2FA" opacity="1.000000" stroke="none" 
	d="
M146.837555,114.628616 
	C147.931351,113.694366 149.025131,112.760101 150.420227,111.751892 
	C149.729034,113.091171 148.736542,114.504410 147.345612,115.617332 
	C146.910660,115.087547 146.874115,114.858086 146.837555,114.628616 
z"/>
<path fill="#EFF2FA" opacity="1.000000" stroke="none" 
	d="
M68.994736,30.100727 
	C68.534210,31.395418 67.680740,32.695610 66.512054,34.115662 
	C66.998482,32.859093 67.800140,31.482660 68.994736,30.100727 
z"/>
<path fill="#EFF2FA" opacity="1.000000" stroke="none" 
	d="
M65.884407,34.185078 
	C65.739578,35.389500 65.210152,36.598461 64.384865,37.968353 
	C64.559280,36.816067 65.029549,35.502842 65.884407,34.185078 
z"/>
<path fill="#EFF2FA" opacity="1.000000" stroke="none" 
	d="
M136.465256,60.598412 
	C136.149109,60.192265 136.083267,59.893108 135.894531,59.386284 
	C136.555313,59.460678 137.281403,59.755424 138.029083,60.356445 
	C137.624847,60.672722 137.198990,60.682720 136.465256,60.598412 
z"/>
<path fill="#EFF2FA" opacity="1.000000" stroke="none" 
	d="
M74.764633,25.070023 
	C74.361984,25.803925 73.584465,26.510792 72.474617,27.226940 
	C72.891449,26.505146 73.640602,25.774067 74.764633,25.070023 
z"/>
<path fill="#E1E7F6" opacity="1.000000" stroke="none" 
	d="
M141.111725,118.182915 
	C141.452377,117.633888 141.970749,117.314178 142.800003,116.979294 
	C143.473434,117.187553 143.835953,117.410995 144.198486,117.634445 
	C143.228806,117.893700 142.259125,118.152962 141.111725,118.182915 
z"/>
<path fill="#E1E7F6" opacity="1.000000" stroke="none" 
	d="
M66.075127,146.240448 
	C66.787483,146.641052 67.472107,147.414703 68.194946,148.510757 
	C67.504578,148.093277 66.775986,147.353363 66.075127,146.240448 
z"/>
<path fill="#EFF2FA" opacity="1.000000" stroke="none" 
	d="
M140.598434,61.563591 
	C140.598434,61.563591 140.199310,61.431240 140.058731,61.274063 
	C140.589767,60.888557 141.261368,60.660225 141.611481,60.822842 
	C141.059448,61.330391 140.828934,61.446991 140.598434,61.563591 
z"/>
<path fill="#A9BAE4" opacity="1.000000" stroke="none" 
	d="
M41.777382,61.076515 
	C42.203579,61.118107 42.459393,61.184746 43.068062,61.434666 
	C42.746078,62.017002 42.071243,62.416058 41.090092,62.775509 
	C40.783775,62.735905 40.681561,62.379845 40.848064,61.980652 
	C41.097469,61.414162 41.180370,61.246864 41.263268,61.079567 
	C41.263268,61.079567 41.606995,61.101555 41.777382,61.076515 
z"/>
<path fill="#B6C2E9" opacity="1.000000" stroke="none" 
	d="
M140.794464,61.775841 
	C140.828934,61.446991 141.059448,61.330391 141.666382,61.119896 
	C142.042801,61.026005 142.417236,61.071602 142.603317,61.078598 
	C142.831238,61.514526 142.873077,61.943459 142.953888,62.694046 
	C142.325424,62.673168 141.657959,62.330631 140.794464,61.775841 
z"/>
<path fill="#EFF2FA" opacity="1.000000" stroke="none" 
	d="
M41.010605,61.062744 
	C41.180370,61.246864 41.097469,61.414162 40.831375,61.796188 
	C40.381863,61.893013 40.115540,61.775116 39.849213,61.657219 
	C40.152119,61.453453 40.455029,61.249687 41.010605,61.062744 
z"/>
<path fill="#EFF2FA" opacity="1.000000" stroke="none" 
	d="
M71.943573,27.184486 
	C72.022697,27.411007 71.837479,27.735777 71.371948,28.137409 
	C71.287498,27.903757 71.483368,27.593245 71.943573,27.184486 
z"/>
<path fill="#EFF2FA" opacity="1.000000" stroke="none" 
	d="
M70.927353,28.203163 
	C71.013672,28.419653 70.822792,28.769684 70.356155,29.260273 
	C70.270309,29.046120 70.460228,28.691414 70.927353,28.203163 
z"/>
<path fill="#E1E7F6" opacity="1.000000" stroke="none" 
	d="
M146.528198,114.730804 
	C146.874115,114.858086 146.910660,115.087547 146.978790,115.664276 
	C146.740128,115.986992 146.469894,115.962456 145.795929,115.874481 
	C145.667740,115.485039 145.943298,115.159019 146.528198,114.730804 
z"/>
<path fill="#2652C4" opacity="1.000000" stroke="none" 
	d="
M120.848358,61.027836 
	C122.009987,61.872467 123.100670,62.965168 124.105652,62.891338 
	C134.437592,62.132271 143.462234,65.112534 151.587830,71.964737 
	C153.618744,77.863945 156.180115,83.613548 156.836700,89.573013 
	C158.493805,104.613503 145.686432,116.040428 130.138657,116.980949 
	C126.830345,117.181076 123.506401,117.122787 119.927208,117.748184 
	C119.537949,118.846863 119.411156,119.380928 119.284363,119.914993 
	C118.864891,123.767967 118.156418,127.615387 118.082382,131.474991 
	C117.892014,141.397919 110.175751,150.816223 100.988708,154.205490 
	C91.188065,157.821167 82.745186,155.410248 74.492989,150.589905 
	C68.541161,147.113251 66.850304,140.846512 65.093094,133.972733 
	C64.974052,132.505981 64.992516,131.750244 65.355759,131.034882 
	C67.268036,130.703751 69.352234,130.831284 70.294388,129.855789 
	C72.196114,127.886803 73.477211,125.318390 75.429337,123.024902 
	C76.121613,123.063232 76.398834,123.073868 76.731384,123.485825 
	C76.708870,125.229164 76.631020,126.571167 76.222000,128.049576 
	C75.594894,128.788498 75.298950,129.391022 74.636032,130.049072 
	C73.600746,131.330185 72.932457,132.555771 72.264168,133.781372 
	C73.845032,134.184036 75.425896,134.586700 77.003532,134.994278 
	C77.000305,134.999191 77.009956,134.996582 77.013443,135.366287 
	C79.590698,138.726105 81.862366,142.101181 84.907425,144.490723 
	C85.928566,145.292038 88.920677,143.581665 91.384033,143.012451 
	C92.500572,143.004944 93.244965,143.004333 94.056137,143.336807 
	C96.793312,146.112061 97.963058,144.249588 99.146301,141.674896 
	C106.829567,135.724396 111.118805,128.695648 107.898117,119.050171 
	C106.112511,113.702545 104.966515,107.662560 98.511314,105.375687 
	C98.522552,105.311401 98.584061,105.426529 98.592148,105.124161 
	C98.260521,104.663857 97.920822,104.505913 97.588730,104.379730 
	C97.596336,104.411499 97.532150,104.399323 97.656815,104.056648 
	C97.518867,102.816780 97.256248,101.919579 97.001358,100.656258 
	C98.673454,98.527092 100.337822,96.764046 102.299286,95.154327 
	C108.436081,99.500740 112.961815,106.337120 121.699432,104.646072 
	C121.740555,104.508965 122.025955,104.531509 122.079819,104.958176 
	C122.879906,105.904587 123.573906,106.768936 124.380363,106.891159 
	C133.105148,108.213356 142.437363,101.222290 143.918716,92.360451 
	C145.220108,84.575317 138.013657,73.425575 130.350220,72.258690 
	C127.699715,71.855103 124.761307,73.342339 121.543427,73.971329 
	C114.968346,74.139122 109.944229,77.180199 109.099640,81.185608 
	C109.027679,81.154602 109.183769,81.168419 108.800758,81.109177 
	C105.286339,82.717567 102.154930,84.385208 98.867035,85.743195 
	C98.469765,82.947037 98.228981,80.460541 97.996201,77.652504 
	C98.021484,76.902214 98.038757,76.473457 98.277725,75.865822 
	C98.710335,75.166733 98.921249,74.646515 99.468674,74.051033 
	C101.765152,71.616051 104.003052,69.433266 105.637283,66.866173 
	C112.956123,55.369610 108.073753,42.125607 95.098427,37.896046 
	C89.757454,36.155052 84.768860,37.608364 80.632622,42.074074 
	C79.158974,44.391212 78.026909,46.645088 76.542671,49.019608 
	C73.178452,53.966335 74.254013,59.014496 76.029404,63.740269 
	C77.507675,67.675133 79.984589,71.234818 82.018654,75.327637 
	C83.018898,76.789635 84.019661,77.884666 85.014999,78.986526 
	C85.009575,78.993355 85.023407,78.978577 85.063705,79.353302 
	C85.818047,82.310455 87.368744,85.178322 82.666908,85.857147 
	C74.815353,78.766769 66.765724,72.777107 55.963825,71.657440 
	C53.978046,68.440460 53.719910,66.095863 57.733303,64.814171 
	C58.294243,64.635033 58.591709,63.630878 59.011143,63.008629 
	C59.451244,63.005463 59.891346,63.002296 60.855530,63.240196 
	C62.254704,63.323360 63.129791,63.165459 64.289886,62.969429 
	C64.716187,62.283745 64.857475,61.636189 64.998764,60.988632 
	C65.350929,54.726109 64.641869,48.172092 66.266075,42.258976 
	C70.201294,27.932352 86.642876,20.861286 100.628304,25.629374 
	C112.562141,29.698011 118.083305,38.728123 118.031837,51.479702 
	C118.022545,53.781605 118.303146,56.084686 118.985382,58.704308 
	C119.691467,59.014153 119.862076,59.006912 120.032684,58.999668 
	C120.267670,59.577915 120.502647,60.156166 120.848358,61.027836 
z"/>
<path fill="#A9BAE4" opacity="1.000000" stroke="none" 
	d="
M60.979202,61.247524 
	C61.508533,60.446232 62.039486,59.858822 62.830673,59.124069 
	C63.363087,59.457489 63.635258,59.938259 63.927002,60.913315 
	C63.946568,61.407600 63.878830,61.852844 63.664093,61.901291 
	C63.449352,61.949741 63.043369,62.123177 62.711975,62.056473 
	C61.931591,61.955147 61.482605,61.920528 61.033615,61.885910 
	C61.033615,61.885910 60.980824,61.461407 60.979202,61.247524 
z"/>
<path fill="#B6C2E9" opacity="1.000000" stroke="none" 
	d="
M120.611099,53.220665 
	C120.901077,53.621838 121.023727,54.273163 120.935287,55.050560 
	C120.630722,54.608028 120.537247,54.039425 120.611099,53.220665 
z"/>
<path fill="#264FBF" opacity="1.000000" stroke="none" 
	d="
M63.878830,61.852844 
	C63.878830,61.852844 63.946568,61.407600 64.009926,61.191071 
	C64.073280,60.974545 64.535927,60.989239 64.767342,60.988937 
	C64.857475,61.636189 64.716187,62.283745 64.287140,62.965260 
	C63.999386,62.999218 63.994072,62.992374 63.976196,62.706383 
	C63.931824,62.231213 63.905327,62.042027 63.878830,61.852844 
z"/>
<path fill="#B6C2E9" opacity="1.000000" stroke="none" 
	d="
M120.057510,48.233757 
	C120.489449,48.545052 120.863640,49.140797 121.012489,49.885052 
	C120.524681,49.528442 120.262222,49.023319 120.057510,48.233757 
z"/>
<path fill="#A9BAE4" opacity="1.000000" stroke="none" 
	d="
M62.808338,45.721153 
	C62.641308,45.177841 62.647781,44.284611 62.896084,43.225174 
	C63.085892,43.829723 63.033867,44.600479 62.808338,45.721153 
z"/>
<path fill="#4561B0" opacity="1.000000" stroke="none" 
	d="
M120.142288,58.754528 
	C119.862076,59.006912 119.691467,59.014153 119.265045,59.010460 
	C119.228088,58.732513 119.446938,58.465504 119.905212,58.090824 
	C120.180389,58.158562 120.216141,58.333973 120.142288,58.754528 
z"/>
<path fill="#2652C6" opacity="1.000000" stroke="none" 
	d="
M38.973576,112.049667 
	C36.772957,110.656837 33.958572,109.734932 32.470448,107.795425 
	C22.122892,94.309288 24.690350,76.295639 38.837391,67.287788 
	C42.835979,69.733604 45.391983,72.484474 44.689571,77.154343 
	C40.469490,82.645226 37.327755,88.200867 40.230431,95.060715 
	C41.249187,97.468330 42.736435,99.677696 44.006844,102.380867 
	C44.754002,107.190216 41.697262,109.529533 38.973576,112.049667 
z"/>
<path fill="#2553C8" opacity="1.000000" stroke="none" 
	d="
M75.014282,122.997215 
	C73.477211,125.318390 72.196114,127.886803 70.294388,129.855789 
	C69.352234,130.831284 67.268036,130.703751 65.345459,130.577423 
	C65.004936,126.718353 65.019493,123.357109 65.182983,119.900391 
	C65.227127,119.535889 65.122314,119.266861 64.773193,119.000610 
	C64.528885,119.003395 64.041992,119.044815 64.041992,119.044815 
	C64.041992,119.044815 63.812016,118.698357 63.791237,118.490921 
	C63.820839,118.071404 63.871223,117.859322 64.090439,117.138977 
	C63.504288,116.744934 62.749306,116.859161 61.994324,116.973389 
	C60.611050,116.981194 59.227772,116.988998 57.382271,116.635468 
	C57.283604,113.185013 57.647160,110.095901 58.405121,106.990265 
	C63.214375,104.997307 67.629219,103.020874 72.402649,101.021530 
	C75.185341,99.008354 77.609451,97.018097 80.242599,94.907158 
	C80.715462,94.586815 80.910133,94.333908 81.244438,93.903259 
	C81.713974,93.571449 81.905403,93.312836 82.348953,92.990799 
	C83.098221,92.958847 83.526024,92.939011 84.157921,93.195091 
	C88.426361,95.220161 85.378838,98.507477 85.726112,101.211472 
	C84.615051,103.252594 83.768967,105.085487 82.580673,106.990234 
	C77.956581,111.524292 74.738304,116.468697 75.014282,122.997215 
z"/>
<path fill="#2650C0" opacity="1.000000" stroke="none" 
	d="
M58.010715,107.006798 
	C57.647160,110.095901 57.283604,113.185013 56.967308,116.629944 
	C50.720715,117.170387 44.626392,116.539619 39.150589,112.353722 
	C41.697262,109.529533 44.754002,107.190216 44.337181,102.531143 
	C45.838039,102.502541 47.005653,102.726929 48.363678,103.008087 
	C48.820599,103.169701 48.997440,103.358536 49.231529,103.954277 
	C50.030739,104.475121 50.683044,104.673058 51.502495,104.882515 
	C51.669636,104.894043 51.979610,105.021301 52.077438,105.387131 
	C54.120419,106.170906 56.065567,106.588852 58.010715,107.006798 
z"/>
<path fill="#264FBF" opacity="1.000000" stroke="none" 
	d="
M44.988705,76.985207 
	C45.391983,72.484474 42.835979,69.733604 39.179688,67.241570 
	C44.725105,62.673710 51.402576,62.816559 58.548805,62.999420 
	C58.591709,63.630878 58.294243,64.635033 57.733303,64.814171 
	C53.719910,66.095863 53.978046,68.440460 55.574028,71.662773 
	C51.814415,73.670097 48.401562,75.327652 44.988705,76.985207 
z"/>
<path fill="#A9BAE4" opacity="1.000000" stroke="none" 
	d="
M50.221169,60.492050 
	C51.793091,60.152721 53.802387,59.986557 56.016685,60.067291 
	C54.367306,60.431198 52.512924,60.548206 50.221169,60.492050 
z"/>
<path fill="#264FBF" opacity="1.000000" stroke="none" 
	d="
M61.024208,62.166573 
	C61.482605,61.920528 61.931591,61.955147 62.821541,62.248116 
	C63.462624,62.734257 63.706482,62.896225 63.994072,62.992374 
	C63.994072,62.992374 63.999386,62.999218 64.002136,63.003387 
	C63.129791,63.165459 62.254704,63.323360 61.185593,63.244831 
	C60.999313,62.821346 61.007057,62.634293 61.024208,62.166573 
z"/>
<path fill="#2650C0" opacity="1.000000" stroke="none" 
	d="
M62.328796,116.984482 
	C62.749306,116.859161 63.504288,116.744934 64.130569,116.814476 
	C63.555676,116.997353 63.109474,116.996468 62.328796,116.984482 
z"/>
<path fill="#DAE0F2" opacity="1.000000" stroke="none" 
	d="
M23.869175,84.735901 
	C23.431553,84.725906 23.388350,84.460564 23.769531,84.088524 
	C23.936398,84.178726 23.959623,84.344971 23.869175,84.735901 
z"/>
<path fill="#DAE0F2" opacity="1.000000" stroke="none" 
	d="
M23.872025,94.736145 
	C23.486694,94.826561 23.374138,94.586403 23.602694,94.152466 
	C23.715542,94.048309 23.916534,94.495216 23.872025,94.736145 
z"/>
<path fill="#405DAD" opacity="1.000000" stroke="none" 
	d="
M63.958252,119.432129 
	C64.041992,119.044815 64.528885,119.003395 64.772186,119.250198 
	C65.015495,119.497009 65.034042,119.995857 65.034042,119.995857 
	C65.019493,123.357109 65.004936,126.718353 65.000687,130.537048 
	C64.992516,131.750244 64.974052,132.505981 64.921768,133.638733 
	C64.477783,134.010849 64.067635,134.005951 63.348778,133.999756 
	C62.943161,133.566345 62.846252,133.134262 63.088272,132.139984 
	C63.253662,130.043472 63.080116,128.509186 62.906570,126.974884 
	C63.229221,124.589737 63.551865,122.204582 63.958252,119.432129 
z"/>
<path fill="#B6C2E6" opacity="1.000000" stroke="none" 
	d="
M119.483658,119.935745 
	C119.411156,119.380928 119.537949,118.846863 119.847786,118.099930 
	C120.288406,118.025795 120.549446,118.157684 120.945580,118.457619 
	C120.904106,118.974747 120.731003,119.316978 120.319885,119.826965 
	C120.081879,119.994713 119.682961,119.956490 119.483658,119.935745 
z"/>
<path fill="#B6C2E6" opacity="1.000000" stroke="none" 
	d="
M119.313171,139.707458 
	C119.453827,139.881042 119.406296,140.256500 119.114586,140.799561 
	C118.955276,140.614548 119.040131,140.261932 119.313171,139.707458 
z"/>
<path fill="#435FAC" opacity="1.000000" stroke="none" 
	d="
M62.801941,127.388123 
	C63.080116,128.509186 63.253662,130.043472 63.147545,131.810455 
	C62.811028,130.629227 62.754169,129.215286 62.801941,127.388123 
z"/>
<path fill="#EEF0F2" opacity="1.000000" stroke="none" 
	d="
M76.553177,127.913170 
	C76.631020,126.571167 76.708870,125.229164 76.849121,123.163544 
	C79.171593,117.287598 81.431656,112.135277 83.890839,106.701660 
	C85.802162,104.336548 87.514366,102.252731 89.178513,100.154419 
	C89.130463,100.139938 89.159302,100.236076 89.526245,100.232468 
	C92.439507,101.619011 94.985825,103.009163 97.532150,104.399323 
	C97.532150,104.399323 97.596336,104.411499 97.644714,104.645813 
	C97.990082,105.062271 98.287071,105.244400 98.584061,105.426529 
	C98.584061,105.426529 98.522552,105.311401 98.577614,105.708290 
	C102.411896,111.947815 106.542984,117.596123 106.309677,125.119034 
	C106.050568,133.473618 101.574387,138.711823 92.971001,140.306351 
	C86.540916,141.498062 80.604660,137.474045 77.809891,129.718506 
	C77.394608,129.024353 76.960609,128.628036 76.531433,128.151932 
	C76.536263,128.072144 76.553177,127.913170 76.553177,127.913170 
M95.052452,108.232155 
	C94.269043,105.410385 93.149017,102.737923 89.625450,105.030830 
	C83.319794,109.134148 78.828751,123.437477 81.832703,130.269623 
	C82.750793,132.357712 84.637840,134.374634 86.599640,135.580856 
	C91.967628,138.881348 101.543610,134.887741 102.474396,127.481064 
	C103.475815,119.512352 101.484367,112.525558 95.544685,109.744652 
	C95.314064,109.529671 95.149635,109.272385 95.052452,108.232155 
z"/>
<path fill="#E6EAF3" opacity="1.000000" stroke="none" 
	d="
M122.025955,104.531509 
	C122.025955,104.531509 121.740555,104.508965 121.464668,104.349365 
	C113.201408,100.905350 105.908623,96.659653 100.332298,89.519478 
	C103.463745,86.565071 106.323761,83.866745 109.183769,81.168419 
	C109.183769,81.168419 109.027679,81.154602 109.434433,81.108223 
	C114.215271,78.987892 118.589355,76.913933 123.398056,74.902756 
	C124.658653,74.966026 125.485809,74.937714 126.310417,74.971489 
	C134.094086,75.290230 139.675598,79.676636 140.996002,86.499710 
	C142.470352,94.118286 139.599106,100.055275 132.102158,103.122200 
	C129.060303,104.366577 125.403137,104.106834 122.025955,104.531509 
M134.523254,81.928207 
	C132.874771,80.661057 131.361755,78.561066 129.554947,78.267128 
	C120.457321,76.787094 112.882614,80.109329 106.915588,86.923225 
	C106.029694,87.934845 105.644104,90.846085 106.353500,91.559509 
	C111.519623,96.754921 117.014458,101.572456 124.961151,101.961037 
	C131.906082,102.300629 134.895081,97.961884 137.130646,92.322647 
	C138.669083,88.441902 138.264847,85.239204 134.523254,81.928207 
z"/>
<path fill="#244FBF" opacity="1.000000" stroke="none" 
	d="
M85.991081,101.003250 
	C85.378838,98.507477 88.426361,95.220161 84.156052,92.850555 
	C83.638245,91.383324 83.326393,90.536530 83.023178,89.321884 
	C83.007805,87.973679 82.983795,86.993324 82.959785,86.012962 
	C87.368744,85.178322 85.818047,82.310455 85.409729,79.396492 
	C86.979279,80.020821 88.124580,81.317299 89.548576,81.812691 
	C90.496712,82.142540 91.842484,81.329422 93.222198,80.911423 
	C93.698357,80.598564 93.901520,80.351860 94.364136,80.006058 
	C95.785851,79.296188 96.887024,78.635117 97.988190,77.974045 
	C98.228981,80.460541 98.469765,82.947037 98.859482,86.098389 
	C96.769432,90.685516 100.535080,92.425583 102.002182,95.000992 
	C100.337822,96.764046 98.673454,98.527092 96.689316,100.486893 
	C91.942711,96.995552 91.369812,96.959984 89.159302,100.236076 
	C89.159302,100.236076 89.130463,100.139938 88.837601,100.127655 
	C87.693527,100.411339 86.842300,100.707291 85.991081,101.003250 
z"/>
<path fill="#3856AD" opacity="1.000000" stroke="none" 
	d="
M82.666908,85.857147 
	C82.983795,86.993324 83.007805,87.973679 82.906624,89.401077 
	C82.781433,89.848114 82.540054,89.991180 82.463470,89.634399 
	C78.184929,85.825920 74.156258,82.131279 69.739532,78.980637 
	C63.440624,74.487358 56.271641,74.847183 49.421841,77.157524 
	C46.854500,78.023445 44.091866,80.647697 43.019348,83.155121 
	C40.186321,89.778442 41.532349,95.985573 47.145973,101.203888 
	C47.461224,101.620384 47.749489,101.777534 48.032295,101.953835 
	C48.026836,101.972984 48.065067,101.953331 48.055500,102.206795 
	C48.088379,102.623947 48.130821,102.787628 48.173267,102.951309 
	C47.005653,102.726929 45.838039,102.502541 44.340092,102.127869 
	C42.736435,99.677696 41.249187,97.468330 40.230431,95.060715 
	C37.327755,88.200867 40.469490,82.645226 44.689571,77.154343 
	C48.401562,75.327652 51.814415,73.670097 55.617069,72.007202 
	C66.765724,72.777107 74.815353,78.766769 82.666908,85.857147 
z"/>
<path fill="#3756AC" opacity="1.000000" stroke="none" 
	d="
M77.791176,130.016357 
	C80.604660,137.474045 86.540916,141.498062 92.971001,140.306351 
	C101.574387,138.711823 106.050568,133.473618 106.309677,125.119034 
	C106.542984,117.596123 102.411896,111.947815 98.566376,105.772583 
	C104.966515,107.662560 106.112511,113.702545 107.898117,119.050171 
	C111.118805,128.695648 106.829567,135.724396 98.774628,141.680420 
	C96.826660,142.324371 95.408012,142.664047 93.989357,143.003723 
	C93.244965,143.004333 92.500572,143.004944 90.992996,143.000824 
	C84.167915,143.065063 81.218834,137.989853 77.009956,134.996582 
	C77.009956,134.996582 77.000305,134.999191 76.996017,134.640518 
	C76.328819,132.852417 75.665924,131.422974 75.003021,129.993546 
	C75.298950,129.391022 75.594894,128.788498 76.222000,128.049576 
	C76.553177,127.913170 76.536263,128.072144 76.453636,128.475555 
	C76.844398,129.258102 77.317787,129.637222 77.791176,130.016357 
z"/>
<path fill="#3A58AE" opacity="1.000000" stroke="none" 
	d="
M122.079819,104.958176 
	C125.403137,104.106834 129.060303,104.366577 132.102158,103.122200 
	C139.599106,100.055275 142.470352,94.118286 140.996002,86.499710 
	C139.675598,79.676636 134.094086,75.290230 126.310417,74.971489 
	C125.485809,74.937714 124.658653,74.966026 123.271599,74.714035 
	C122.499542,74.234474 122.247505,74.068924 121.954399,73.965897 
	C124.761307,73.342339 127.699715,71.855103 130.350220,72.258690 
	C138.013657,73.425575 145.220108,84.575317 143.918716,92.360451 
	C142.437363,101.222290 133.105148,108.213356 124.380363,106.891159 
	C123.573906,106.768936 122.879906,105.904587 122.079819,104.958176 
z"/>
<path fill="#3957AA" opacity="1.000000" stroke="none" 
	d="
M80.974197,42.010807 
	C84.768860,37.608364 89.757454,36.155052 95.098427,37.896046 
	C108.073753,42.125607 112.956123,55.369610 105.637283,66.866173 
	C104.003052,69.433266 101.765152,71.616051 99.378586,73.969955 
	C98.951996,73.964157 98.770676,73.803307 98.887413,73.479095 
	C101.235458,69.109512 104.017479,65.263435 105.570381,60.972538 
	C107.963638,54.359615 106.755394,47.968056 101.039749,43.412319 
	C95.602554,39.078518 89.504181,38.817875 83.351036,42.281502 
	C82.643394,42.679844 81.817810,42.868660 81.030060,42.868584 
	C81.000206,42.391968 80.987206,42.201385 80.974197,42.010807 
z"/>
<path fill="#3B5BB2" opacity="1.000000" stroke="none" 
	d="
M93.010284,81.027870 
	C91.842484,81.329422 90.496712,82.142540 89.548576,81.812691 
	C88.124580,81.317299 86.979279,80.020821 85.369438,79.021774 
	C85.023407,78.978577 85.009575,78.993355 84.979507,78.659370 
	C83.972687,77.203819 82.995934,76.082245 82.019180,74.960678 
	C79.984589,71.234818 77.507675,67.675133 76.029404,63.740269 
	C74.254013,59.014496 73.178452,53.966335 76.642517,49.102543 
	C77.094536,49.064831 77.294571,49.226124 77.319382,49.624813 
	C74.773621,59.028992 79.495865,66.051979 84.138451,72.761894 
	C86.238350,75.796875 90.003952,77.679359 93.013901,80.320496 
	C93.013939,80.556297 93.010284,81.027870 93.010284,81.027870 
z"/>
<path fill="#3857A8" opacity="1.000000" stroke="none" 
	d="
M102.299278,95.154327 
	C100.535080,92.425583 96.769432,90.685516 99.015961,86.408043 
	C102.154930,84.385208 105.286339,82.717567 108.800758,81.109177 
	C106.323761,83.866745 103.463745,86.565071 100.332298,89.519478 
	C105.908623,96.659653 113.201408,100.905350 121.423546,104.486481 
	C112.961815,106.337120 108.436081,99.500740 102.299278,95.154327 
z"/>
<path fill="#3E5EB6" opacity="1.000000" stroke="none" 
	d="
M83.691719,106.982948 
	C81.431656,112.135277 79.171593,117.287598 76.793800,122.762207 
	C76.398834,123.073868 76.121613,123.063232 75.429337,123.024902 
	C74.738304,116.468697 77.956581,111.524292 82.773102,107.009247 
	C83.307732,106.956421 83.691719,106.982948 83.691719,106.982948 
z"/>
<path fill="#264FBE" opacity="1.000000" stroke="none" 
	d="
M77.013443,135.366287 
	C81.218834,137.989853 84.167915,143.065063 90.620850,143.007721 
	C88.920677,143.581665 85.928566,145.292038 84.907425,144.490723 
	C81.862366,142.101181 79.590698,138.726105 77.013443,135.366287 
z"/>
<path fill="#3857A8" opacity="1.000000" stroke="none" 
	d="
M121.543427,73.971329 
	C122.247505,74.068924 122.499542,74.234474 122.836975,74.651260 
	C118.589355,76.913933 114.215271,78.987892 109.506393,81.139221 
	C109.944229,77.180199 114.968346,74.139122 121.543427,73.971329 
z"/>
<path fill="#3756AC" opacity="1.000000" stroke="none" 
	d="
M89.526245,100.232468 
	C91.369812,96.959984 91.942711,96.995552 96.681580,100.853012 
	C97.256248,101.919579 97.518867,102.816780 97.656815,104.056648 
	C94.985825,103.009163 92.439507,101.619011 89.526245,100.232468 
z"/>
<path fill="#264FBE" opacity="1.000000" stroke="none" 
	d="
M74.636032,130.049072 
	C75.665924,131.422974 76.328819,132.852417 76.999237,134.635605 
	C75.425896,134.586700 73.845032,134.184036 72.264168,133.781372 
	C72.932457,132.555771 73.600746,131.330185 74.636032,130.049072 
z"/>
<path fill="#3B5BB2" opacity="1.000000" stroke="none" 
	d="
M80.632622,42.074074 
	C80.987206,42.201385 81.000206,42.391968 80.897598,43.168587 
	C79.619507,45.578457 78.457039,47.402290 77.294571,49.226124 
	C77.294571,49.226124 77.094536,49.064831 76.994690,48.981895 
	C78.026909,46.645088 79.158974,44.391212 80.632622,42.074074 
z"/>
<path fill="#264FBE" opacity="1.000000" stroke="none" 
	d="
M94.056137,143.336807 
	C95.408012,142.664047 96.826660,142.324371 98.616989,141.979156 
	C97.963058,144.249588 96.793312,146.112061 94.056137,143.336807 
z"/>
<path fill="#3957AA" opacity="1.000000" stroke="none" 
	d="
M97.996201,77.652512 
	C96.887024,78.635117 95.785851,79.296188 94.260834,79.898911 
	C93.836998,79.840553 93.628708,79.629723 93.753265,79.338760 
	C95.047112,77.837540 96.216400,76.627281 97.552811,75.574440 
	C97.719940,75.731857 98.056038,76.044701 98.056038,76.044701 
	C98.038757,76.473457 98.021484,76.902214 97.996201,77.652512 
z"/>
<path fill="#244FBF" opacity="1.000000" stroke="none" 
	d="
M82.018661,75.327637 
	C82.995934,76.082245 83.972687,77.203819 84.984924,78.652542 
	C84.019661,77.884666 83.018898,76.789635 82.018661,75.327637 
z"/>
<path fill="#3957AA" opacity="1.000000" stroke="none" 
	d="
M99.042084,74.045227 
	C98.921249,74.646515 98.710335,75.166733 98.277725,75.865822 
	C98.056038,76.044701 97.719940,75.731857 97.669167,75.327911 
	C98.002487,74.550423 98.386581,74.176865 98.770676,73.803307 
	C98.770676,73.803307 98.951996,73.964157 99.042084,74.045227 
z"/>
<path fill="#3756AC" opacity="1.000000" stroke="none" 
	d="
M98.592148,105.124161 
	C98.287071,105.244400 97.990082,105.062271 97.637108,104.614052 
	C97.920822,104.505913 98.260521,104.663857 98.592148,105.124161 
z"/>
<path fill="#405DAD" opacity="1.000000" stroke="none" 
	d="
M63.976196,62.706383 
	C63.706482,62.896225 63.462624,62.734257 63.152935,62.314819 
	C63.043369,62.123177 63.449352,61.949741 63.664093,61.901291 
	C63.905327,62.042027 63.931824,62.231213 63.976196,62.706383 
z"/>
<path fill="#3856AD" opacity="1.000000" stroke="none" 
	d="
M58.405121,106.990265 
	C56.065567,106.588852 54.120419,106.170906 52.462639,105.366829 
	C54.904884,104.728065 57.059757,104.475441 59.565681,104.213211 
	C60.616413,104.185356 61.316101,104.167107 62.131554,104.285408 
	C62.499580,104.258263 62.751842,104.094559 63.278496,103.758865 
	C64.728073,103.060730 65.903259,102.534584 67.439209,102.007149 
	C69.184059,101.650101 70.568138,101.294334 71.974792,100.965378 
	C71.997368,100.992180 72.044067,101.044441 72.044067,101.044441 
	C67.629219,103.020874 63.214375,104.997307 58.405121,106.990265 
z"/>
<path fill="#3856AD" opacity="1.000000" stroke="none" 
	d="
M80.033554,95.027832 
	C77.609451,97.018097 75.185341,99.008354 72.402649,101.021530 
	C72.044067,101.044441 71.997368,100.992180 72.101929,100.719025 
	C72.476738,99.766487 72.746994,99.087097 73.307190,98.247414 
	C74.154877,97.405212 74.712639,96.723305 75.465942,96.011879 
	C75.936134,95.864281 76.073067,95.655807 76.414719,95.292999 
	C77.605270,94.875435 78.453369,94.521820 79.483841,94.383659 
	C79.788658,94.742027 79.911110,94.884926 80.033554,95.027832 
z"/>
<path fill="#3756AC" opacity="1.000000" stroke="none" 
	d="
M83.890839,106.701660 
	C83.691719,106.982948 83.307732,106.956421 83.115311,106.937401 
	C83.768967,105.085487 84.615051,103.252594 85.726112,101.211472 
	C86.842300,100.707291 87.693527,100.411339 88.885651,100.142143 
	C87.514366,102.252731 85.802162,104.336548 83.890839,106.701660 
z"/>
<path fill="#4362B2" opacity="1.000000" stroke="none" 
	d="
M82.540054,89.991180 
	C82.540054,89.991180 82.781433,89.848114 82.897980,89.768921 
	C83.326393,90.536530 83.638245,91.383324 83.951965,92.574646 
	C83.526024,92.939011 83.098221,92.958847 81.982635,92.977097 
	C81.051178,92.960213 80.807495,92.944923 80.711014,92.604889 
	C81.418823,91.517143 81.979439,90.754166 82.540054,89.991180 
z"/>
<path fill="#3856AD" opacity="1.000000" stroke="none" 
	d="
M81.035645,94.027771 
	C80.910133,94.333908 80.715462,94.586815 80.242592,94.907150 
	C79.911110,94.884926 79.788658,94.742027 79.604538,94.209198 
	C79.727608,93.597816 79.950691,93.426193 80.417740,93.485519 
	C80.760803,93.787018 80.898224,93.907394 81.035645,94.027771 
z"/>
<path fill="#3856AD" opacity="1.000000" stroke="none" 
	d="
M80.563812,92.929642 
	C80.807495,92.944923 81.051178,92.960213 81.661186,92.989204 
	C81.905403,93.312836 81.713974,93.571449 81.244438,93.903259 
	C80.898224,93.907394 80.760803,93.787018 80.485352,93.372955 
	C80.347313,93.079277 80.563812,92.929642 80.563812,92.929642 
z"/>
<path fill="#2650C0" opacity="1.000000" stroke="none" 
	d="
M65.182983,119.900391 
	C65.034042,119.995857 65.015495,119.497009 65.016495,119.247421 
	C65.122314,119.266861 65.227127,119.535889 65.182983,119.900391 
z"/>
<path fill="#A8BBE4" opacity="1.000000" stroke="none" 
	d="
M59.214634,104.222809 
	C57.059757,104.475441 54.904884,104.728065 52.364807,105.000999 
	C51.979610,105.021301 51.669636,104.894043 51.308613,104.607658 
	C50.326599,104.091309 49.705608,103.861343 49.084621,103.631371 
	C48.997440,103.358536 48.820599,103.169701 48.363678,103.008087 
	C48.130821,102.787628 48.088379,102.623947 48.451759,102.178406 
	C52.309933,102.671967 55.762283,103.447388 59.214634,104.222809 
z"/>
<path fill="#3856AD" opacity="1.000000" stroke="none" 
	d="
M49.231529,103.954277 
	C49.705608,103.861343 50.326599,104.091309 51.141472,104.596130 
	C50.683044,104.673058 50.030739,104.475121 49.231529,103.954277 
z"/>
<path fill="#FCE9B9" opacity="1.000000" stroke="none" 
	d="
M95.926186,110.004280 
	C101.484367,112.525558 103.475815,119.512352 102.474396,127.481064 
	C101.543610,134.887741 91.967628,138.881348 86.599640,135.580856 
	C84.637840,134.374634 82.750793,132.357712 81.832703,130.269623 
	C78.828751,123.437477 83.319794,109.134148 89.625450,105.030830 
	C93.149017,102.737923 94.269043,105.410385 94.719009,108.476143 
	C92.723503,108.529175 89.996109,107.636726 89.581123,108.266945 
	C87.634285,111.223549 86.323349,114.598892 84.732529,118.134003 
	C84.697250,118.651047 84.714767,118.858795 84.620735,119.156441 
	C84.509178,119.246338 84.478561,119.531235 84.183113,119.756805 
	C82.285927,124.090401 82.375725,127.735924 86.714584,130.235748 
	C86.740479,130.244736 86.793846,130.257248 86.897583,130.578400 
	C89.005104,131.273697 91.008896,131.647812 93.303604,132.001038 
	C94.109550,131.729706 94.624588,131.479309 95.385742,131.135956 
	C95.844078,130.773514 96.056305,130.504044 96.392380,130.034973 
	C96.516235,129.835388 96.420341,129.375473 96.352043,129.210114 
	C96.283745,129.044769 96.379456,129.389526 96.666489,129.449280 
	C97.317764,129.364395 97.682014,129.219788 98.343033,128.932785 
	C99.002068,127.821617 99.364334,126.852844 99.820473,125.487625 
	C99.677536,123.032516 99.440727,120.973854 99.215958,118.531448 
	C98.127396,115.433228 97.026787,112.718758 95.926186,110.004280 
z"/>
<path fill="#E9B64A" opacity="1.000000" stroke="none" 
	d="
M95.735435,109.874466 
	C97.026787,112.718758 98.127396,115.433228 98.937119,118.417076 
	C98.112053,118.099617 97.577881,117.512787 96.996567,116.582825 
	C95.368896,114.188713 93.788376,112.137733 91.494934,109.161636 
	C89.356255,112.547508 87.660484,115.232178 85.668137,117.916092 
	C85.176147,117.885124 84.980743,117.854912 84.785339,117.824707 
	C86.323349,114.598892 87.634285,111.223549 89.581123,108.266945 
	C89.996109,107.636726 92.723503,108.529175 94.718491,108.846451 
	C95.149635,109.272385 95.314064,109.529671 95.735435,109.874466 
z"/>
<path fill="#3E5EB6" opacity="1.000000" stroke="none" 
	d="
M77.809891,129.718506 
	C77.317787,129.637222 76.844398,129.258102 76.448807,128.555344 
	C76.960609,128.628036 77.394608,129.024353 77.809891,129.718506 
z"/>
<path fill="#FBEBBD" opacity="1.000000" stroke="none" 
	d="
M134.768173,82.224091 
	C138.264847,85.239204 138.669083,88.441902 137.130646,92.322647 
	C134.895081,97.961884 131.906082,102.300629 124.961151,101.961037 
	C117.014458,101.572456 111.519623,96.754921 106.353500,91.559509 
	C105.644104,90.846085 106.029694,87.934845 106.915588,86.923225 
	C112.882614,80.109329 120.457321,76.787094 129.554947,78.267128 
	C131.361755,78.561066 132.874771,80.661057 134.768173,82.224091 
M130.935623,83.638588 
	C123.979866,78.937927 113.804344,81.700996 107.537407,90.948112 
	C112.022545,93.341652 116.300529,95.937347 120.837593,97.948639 
	C124.580742,99.607986 128.580719,99.234558 131.241501,95.810120 
	C134.029739,92.221649 134.004364,88.147789 130.935623,83.638588 
z"/>
<path fill="#3957AA" opacity="1.000000" stroke="none" 
	d="
M93.222198,80.911423 
	C93.010284,81.027870 93.013939,80.556297 93.130951,80.157257 
	C93.247955,79.758217 93.628708,79.629723 93.628708,79.629723 
	C93.628708,79.629723 93.836998,79.840553 93.940292,79.947708 
	C93.901520,80.351860 93.698357,80.598564 93.222198,80.911423 
z"/>
<path fill="#EDF0F5" opacity="1.000000" stroke="none" 
	d="
M59.565681,104.213211 
	C55.762283,103.447388 52.309933,102.671967 48.461327,101.924942 
	C48.065067,101.953331 48.026836,101.972984 47.955040,101.731339 
	C47.665947,101.255470 47.411198,101.073746 47.118992,100.944527 
	C41.532349,95.985573 40.186321,89.778442 43.019348,83.155121 
	C44.091866,80.647697 46.854500,78.023445 49.421841,77.157524 
	C56.271641,74.847183 63.440624,74.487358 69.739532,78.980637 
	C74.156258,82.131279 78.184929,85.825920 82.463470,89.634399 
	C81.979439,90.754166 81.418823,91.517143 80.711014,92.604889 
	C80.563812,92.929642 80.347313,93.079277 80.279709,93.191833 
	C79.950691,93.426193 79.727608,93.597816 79.422165,93.993729 
	C78.453369,94.521820 77.605270,94.875435 76.419746,94.900711 
	C76.389046,91.975220 81.119408,88.678337 74.919388,87.102676 
	C74.936348,87.092247 74.930161,87.086655 74.920631,86.729721 
	C73.665642,85.515099 72.420189,84.657417 71.075851,83.461380 
	C66.853455,81.460617 62.826626,79.462875 58.577095,78.237404 
	C54.898537,77.176590 51.227249,77.983894 49.032070,81.602058 
	C46.521255,85.740471 43.308006,89.717491 46.176785,95.162735 
	C49.311279,101.112328 56.737473,103.765251 61.478725,100.126816 
	C64.019852,99.744263 66.161659,99.431122 68.242096,99.435928 
	C67.813309,100.505394 67.445885,101.256912 67.078453,102.008438 
	C65.903259,102.534584 64.728073,103.060730 63.014355,103.736092 
	C62.322475,103.973160 62.169132,104.061005 62.015789,104.148857 
	C61.316101,104.167107 60.616413,104.185356 59.565681,104.213211 
z"/>
<path fill="#A8BBE4" opacity="1.000000" stroke="none" 
	d="
M47.145973,101.203888 
	C47.411198,101.073746 47.665947,101.255470 47.960503,101.712189 
	C47.749489,101.777534 47.461224,101.620384 47.145973,101.203888 
z"/>
<path fill="#E6EAF0" opacity="1.000000" stroke="none" 
	d="
M93.753265,79.338760 
	C93.628708,79.629723 93.247955,79.758217 93.130913,79.921463 
	C90.003952,77.679359 86.238350,75.796875 84.138451,72.761894 
	C79.495865,66.051979 74.773621,59.028992 77.319382,49.624813 
	C78.457039,47.402290 79.619507,45.578457 80.914444,43.454624 
	C81.817810,42.868660 82.643394,42.679844 83.351036,42.281502 
	C89.504181,38.817875 95.602554,39.078518 101.039749,43.412319 
	C106.755394,47.968056 107.963638,54.359615 105.570381,60.972538 
	C104.017479,65.263435 101.235458,69.109512 98.887413,73.479095 
	C98.386581,74.176865 98.002487,74.550423 97.502045,75.170502 
	C96.216400,76.627281 95.047112,77.837540 93.753265,79.338760 
M93.453514,73.177475 
	C93.453514,73.177475 93.884895,72.973991 94.597374,72.966599 
	C101.196342,68.149178 103.046661,61.416103 101.838524,53.772747 
	C100.801796,47.213871 92.978645,42.114830 87.958344,44.707584 
	C83.782616,46.864162 81.370834,50.803265 81.126694,55.500355 
	C80.863075,60.572357 80.866646,65.813087 86.598686,69.186813 
	C86.961693,69.253563 87.324699,69.320320 87.826172,69.902817 
	C87.908989,70.247826 87.991806,70.592827 87.547432,71.297943 
	C88.836884,72.817711 90.126335,74.337479 91.415787,75.857239 
	C91.971825,75.064468 92.527855,74.271690 93.453514,73.177475 
z"/>
<path fill="#4362B2" opacity="1.000000" stroke="none" 
	d="
M67.439209,102.007149 
	C67.445885,101.256912 67.813309,100.505394 68.457642,99.345772 
	C69.072212,98.620468 69.409874,98.303261 70.158035,98.047028 
	C71.384766,98.207901 72.201012,98.307808 73.017250,98.407715 
	C72.746994,99.087097 72.476738,99.766487 72.079353,100.692230 
	C70.568138,101.294334 69.184059,101.650101 67.439209,102.007149 
z"/>
<path fill="#4362B2" opacity="1.000000" stroke="none" 
	d="
M62.131554,104.285408 
	C62.169132,104.061005 62.322475,103.973160 62.739960,103.908081 
	C62.751842,104.094559 62.499580,104.258263 62.131554,104.285408 
z"/>
<path fill="#FCF1CE" opacity="1.000000" stroke="none" 
	d="
M74.902428,87.113106 
	C81.119408,88.678337 76.389046,91.975220 76.077301,94.964645 
	C76.073067,95.655807 75.936134,95.864281 75.073662,95.930984 
	C73.916176,95.370789 73.346519,94.861954 72.880325,94.074066 
	C74.496216,91.818344 76.836998,90.079536 74.902428,87.113106 
z"/>
<path fill="#EDF0F5" opacity="1.000000" stroke="none" 
	d="
M72.776855,94.353127 
	C73.346519,94.861954 73.916176,95.370789 74.878120,95.960510 
	C74.712639,96.723305 74.154877,97.405212 73.307190,98.247421 
	C72.201012,98.307808 71.384766,98.207901 70.243599,97.707352 
	C70.871399,96.322174 71.824127,95.337646 72.776855,94.353127 
z"/>
<path fill="#F8AB0B" opacity="1.000000" stroke="none" 
	d="
M85.964722,117.916840 
	C87.660484,115.232178 89.356255,112.547508 91.494934,109.161636 
	C93.788376,112.137733 95.368896,114.188713 96.983231,117.002480 
	C97.334435,120.500557 97.651825,123.235855 97.614304,126.057808 
	C96.966087,127.226158 96.672775,128.307846 96.379456,129.389526 
	C96.379456,129.389526 96.283745,129.044769 95.898712,129.086151 
	C92.649559,128.763596 89.785446,128.399628 86.653275,127.769623 
	C85.749680,124.846138 85.114120,122.188690 84.478561,119.531235 
	C84.478561,119.531235 84.509178,119.246338 84.890289,119.037506 
	C85.502502,118.524734 85.733612,118.220787 85.964722,117.916840 
z"/>
<path fill="#E9B64A" opacity="1.000000" stroke="none" 
	d="
M84.183113,119.756805 
	C85.114120,122.188690 85.749680,124.846138 86.656219,128.138000 
	C86.847710,129.257187 86.768196,129.741959 86.688690,130.226746 
	C82.375725,127.735924 82.285927,124.090401 84.183113,119.756805 
z"/>
<path fill="#EBA518" opacity="1.000000" stroke="none" 
	d="
M86.714584,130.235748 
	C86.768196,129.741959 86.847710,129.257187 86.924271,128.404022 
	C89.785446,128.399628 92.649559,128.763596 95.967010,129.251511 
	C96.420341,129.375473 96.516235,129.835388 96.113419,130.075241 
	C95.520279,130.619705 95.329956,130.924301 95.139633,131.228912 
	C94.624588,131.479309 94.109550,131.729706 93.058228,131.738541 
	C90.612579,131.083725 88.703209,130.670486 86.793846,130.257248 
	C86.793846,130.257248 86.740479,130.244736 86.714584,130.235748 
z"/>
<path fill="#EBA518" opacity="1.000000" stroke="none" 
	d="
M97.969208,125.971146 
	C97.651825,123.235855 97.334435,120.500557 97.030380,117.345612 
	C97.577881,117.512787 98.112053,118.099617 98.925072,118.800819 
	C99.440727,120.973854 99.677536,123.032516 99.542542,125.511749 
	C98.799339,125.973206 98.427933,126.014091 98.034790,126.033928 
	C98.013039,126.012886 97.969208,125.971146 97.969208,125.971146 
z"/>
<path fill="#E9B64A" opacity="1.000000" stroke="none" 
	d="
M86.897583,130.578400 
	C88.703209,130.670486 90.612579,131.083725 92.767319,131.759460 
	C91.008896,131.647812 89.005104,131.273697 86.897583,130.578400 
z"/>
<path fill="#EBA518" opacity="1.000000" stroke="none" 
	d="
M96.666489,129.449280 
	C96.672775,128.307846 96.966087,127.226158 97.614304,126.057808 
	C97.969208,125.971146 98.013039,126.012886 98.025436,126.409729 
	C98.040642,127.562775 98.043457,128.318985 98.046272,129.075180 
	C97.682014,129.219788 97.317764,129.364395 96.666489,129.449280 
z"/>
<path fill="#E9B64A" opacity="1.000000" stroke="none" 
	d="
M98.343033,128.932785 
	C98.043457,128.318985 98.040642,127.562775 98.047180,126.430771 
	C98.427933,126.014091 98.799339,125.973206 99.448669,125.908188 
	C99.364334,126.852844 99.002068,127.821617 98.343033,128.932785 
z"/>
<path fill="#E9B64A" opacity="1.000000" stroke="none" 
	d="
M95.385742,131.135956 
	C95.329956,130.924301 95.520279,130.619705 95.989563,130.274841 
	C96.056305,130.504044 95.844078,130.773514 95.385742,131.135956 
z"/>
<path fill="#EBA518" opacity="1.000000" stroke="none" 
	d="
M85.668137,117.916092 
	C85.733612,118.220787 85.502502,118.524734 85.001846,118.947617 
	C84.714767,118.858795 84.697250,118.651047 84.732536,118.134003 
	C84.980743,117.854912 85.176147,117.885124 85.668137,117.916092 
z"/>
<path fill="#F1AA1C" opacity="1.000000" stroke="none" 
	d="
M131.202896,83.937454 
	C134.004364,88.147789 134.029739,92.221649 131.241501,95.810120 
	C128.580719,99.234558 124.580742,99.607986 120.837593,97.948639 
	C116.300529,95.937347 112.022545,93.341652 107.537407,90.948112 
	C113.804344,81.700996 123.979866,78.937927 131.202896,83.937454 
z"/>
<path fill="#FCF1CE" opacity="1.000000" stroke="none" 
	d="
M61.079403,100.196228 
	C56.737473,103.765251 49.311279,101.112328 46.176785,95.162735 
	C43.308006,89.717491 46.521255,85.740471 49.032070,81.602058 
	C51.227249,77.983894 54.898537,77.176590 58.577095,78.237404 
	C62.826626,79.462875 66.853455,81.460617 71.008545,83.541733 
	C71.040123,83.960426 70.907768,84.117104 70.574402,84.094482 
	C69.796883,84.097282 69.352715,84.122704 68.658890,84.035255 
	C68.066452,83.796440 67.723686,83.670486 67.208412,83.236481 
	C62.624817,80.750450 58.218491,78.355774 53.433525,82.811760 
	C52.686119,83.571991 52.170593,84.154854 51.319881,84.854523 
	C50.370544,86.217300 49.273865,87.443192 49.221035,88.712517 
	C48.892956,96.596008 51.975182,99.490479 61.079403,100.196228 
z"/>
<path fill="#ECBF5F" opacity="1.000000" stroke="none" 
	d="
M61.478725,100.126816 
	C51.975182,99.490479 48.892956,96.596008 49.221035,88.712517 
	C49.273865,87.443192 50.370544,86.217300 51.419281,85.263031 
	C50.463028,90.071152 50.691387,94.231369 55.401566,96.615662 
	C61.796650,99.852829 71.660492,93.983101 72.666962,86.755386 
	C73.640007,86.878700 74.285088,86.982681 74.930161,87.086655 
	C74.930161,87.086655 74.936348,87.092247 74.919388,87.102676 
	C76.836998,90.079536 74.496216,91.818344 72.880325,94.074066 
	C71.824127,95.337646 70.871399,96.322174 69.833107,97.646378 
	C69.409874,98.303261 69.072212,98.620468 68.519005,99.027832 
	C66.161659,99.431122 64.019852,99.744263 61.478725,100.126816 
z"/>
<path fill="#FCF1CE" opacity="1.000000" stroke="none" 
	d="
M74.920631,86.729721 
	C74.285088,86.982681 73.640007,86.878700 72.556992,86.592804 
	C72.119049,86.410896 71.869156,86.108383 71.821564,85.831482 
	C71.485245,85.075424 71.196503,84.596260 70.907768,84.117104 
	C70.907768,84.117104 71.040123,83.960426 71.107422,83.880081 
	C72.420189,84.657417 73.665642,85.515099 74.920631,86.729721 
z"/>
<path fill="#F7AB0E" opacity="1.000000" stroke="none" 
	d="
M88.074615,70.937836 
	C87.991806,70.592827 87.908989,70.247826 87.833389,69.291313 
	C87.183487,67.806686 86.526352,66.933563 85.797546,65.869690 
	C85.725883,65.678925 85.664459,65.276024 85.679817,65.009598 
	C85.455505,64.495285 85.215843,64.247383 84.944824,63.588985 
	C84.652870,60.460342 84.392281,57.742199 84.458961,54.944962 
	C87.420090,51.547543 90.453445,49.060623 95.039803,49.926727 
	C94.987801,49.939571 95.082787,49.888382 95.097366,50.262566 
	C98.896957,55.061020 97.779762,60.150604 97.056366,65.386917 
	C97.026627,65.591125 96.887962,65.979851 96.680252,66.123871 
	C96.333992,66.569511 96.195450,66.871132 96.039047,67.481133 
	C95.473740,68.580780 94.926285,69.372047 93.969940,70.113159 
	C92.065582,70.274582 90.570114,70.486168 88.817169,70.726639 
	C88.397987,70.816307 88.236298,70.877075 88.074615,70.937836 
z"/>
<path fill="#FBE5AE" opacity="1.000000" stroke="none" 
	d="
M94.378830,70.163315 
	C94.926285,69.372047 95.473740,68.580780 96.269753,67.354881 
	C96.641525,66.606781 96.764748,66.293320 96.887962,65.979851 
	C96.887962,65.979851 97.026627,65.591125 97.367477,65.138138 
	C100.680313,58.126003 99.652290,52.332352 95.082787,49.888382 
	C95.082787,49.888382 94.987801,49.939571 94.879013,49.583687 
	C88.937950,46.562908 84.745071,48.847340 84.131691,55.024059 
	C84.392281,57.742199 84.652870,60.460342 84.980972,63.837994 
	C85.253815,64.757011 85.459137,65.016518 85.664459,65.276024 
	C85.664459,65.276024 85.725883,65.678925 85.806625,66.237595 
	C85.949623,67.530510 86.011894,68.264748 86.074165,68.998993 
	C80.866646,65.813087 80.863075,60.572357 81.126694,55.500355 
	C81.370834,50.803265 83.782616,46.864162 87.958344,44.707584 
	C92.978645,42.114830 100.801796,47.213871 101.838524,53.772747 
	C103.046661,61.416103 101.196342,68.149178 94.264565,72.613083 
	C94.080780,71.560814 94.229805,70.862068 94.378830,70.163315 
z"/>
<path fill="#FBE5AE" opacity="1.000000" stroke="none" 
	d="
M87.811020,71.117889 
	C88.236298,70.877075 88.397987,70.816307 88.987717,71.059990 
	C90.638466,72.069275 91.861176,72.774094 93.083893,73.478920 
	C92.527855,74.271690 91.971825,75.064468 91.415787,75.857239 
	C90.126335,74.337479 88.836884,72.817711 87.811020,71.117889 
z"/>
<path fill="#E9AC2E" opacity="1.000000" stroke="none" 
	d="
M93.268707,73.328201 
	C91.861176,72.774094 90.638466,72.069275 89.245201,71.031097 
	C90.570114,70.486168 92.065582,70.274582 93.969933,70.113159 
	C94.229805,70.862068 94.080780,71.560814 93.908325,72.616776 
	C93.884895,72.973991 93.453514,73.177475 93.268707,73.328201 
z"/>
<path fill="#EABC53" opacity="1.000000" stroke="none" 
	d="
M86.336426,69.092903 
	C86.011894,68.264748 85.949623,67.530510 85.878288,66.428360 
	C86.526352,66.933563 87.183487,67.806686 87.764160,69.033440 
	C87.324699,69.320320 86.961693,69.253563 86.336426,69.092903 
z"/>
<path fill="#F0A411" opacity="1.000000" stroke="none" 
	d="
M71.869156,86.108383 
	C71.869156,86.108383 72.119049,86.410896 72.229019,86.573471 
	C71.660492,93.983101 61.796650,99.852829 55.401566,96.615662 
	C50.691387,94.231369 50.463028,90.071152 51.754471,85.146225 
	C52.170593,84.154854 52.686119,83.571991 53.846897,82.884003 
	C58.788406,83.034088 63.084660,83.289314 67.380913,83.544533 
	C67.723686,83.670486 68.066452,83.796440 68.733322,84.355927 
	C69.994659,85.229095 70.931908,85.668739 71.869156,86.108383 
z"/>
<path fill="#ECBF5F" opacity="1.000000" stroke="none" 
	d="
M67.208412,83.236481 
	C63.084660,83.289314 58.788406,83.034088 54.078781,82.706635 
	C58.218491,78.355774 62.624817,80.750450 67.208412,83.236481 
z"/>
<path fill="#ECBF5F" opacity="1.000000" stroke="none" 
	d="
M71.821564,85.831482 
	C70.931908,85.668739 69.994659,85.229095 68.982986,84.468796 
	C69.352715,84.122704 69.796883,84.097282 70.574402,84.094482 
	C71.196503,84.596260 71.485245,85.075424 71.821564,85.831482 
z"/>
<path fill="#E9AC2E" opacity="1.000000" stroke="none" 
	d="
M84.458961,54.944962 
	C84.745071,48.847340 88.937950,46.562908 94.931015,49.570847 
	C90.453445,49.060623 87.420090,51.547543 84.458961,54.944962 
z"/>
<path fill="#E9AC2E" opacity="1.000000" stroke="none" 
	d="
M95.097366,50.262566 
	C99.652290,52.332352 100.680313,58.126003 97.397217,64.933929 
	C97.779762,60.150604 98.896957,55.061020 95.097366,50.262566 
z"/>
<path fill="#EABC53" opacity="1.000000" stroke="none" 
	d="
M85.679817,65.009598 
	C85.459137,65.016518 85.253815,64.757011 85.012329,64.248497 
	C85.215843,64.247383 85.455505,64.495285 85.679817,65.009598 
z"/>
<path fill="#E9AC2E" opacity="1.000000" stroke="none" 
	d="
M96.680252,66.123871 
	C96.764748,66.293320 96.641525,66.606781 96.287605,67.046501 
	C96.195450,66.871132 96.333992,66.569511 96.680252,66.123871 
z"/>
</svg>