<svg version="1.1" id="Layer_1" xmlns="http://www.w3.org/2000/svg" xmlns:xlink="http://www.w3.org/1999/xlink" x="0px" y="0px"
	 width="100%" viewBox="0 0 500 500" enable-background="new 0 0 500 500" xml:space="preserve">
<path fill="#000001" opacity="1.000000" stroke="none" 
	d="
M301.000000,501.000000 
	C200.666687,501.000000 100.833382,501.000000 1.000054,501.000000 
	C1.000036,334.333405 1.000036,167.666794 1.000018,1.000143 
	C167.666565,1.000095 334.333130,1.000095 500.999756,1.000048 
	C500.999847,167.666519 500.999847,334.333038 500.999939,500.999786 
	C434.500000,501.000000 368.000000,501.000000 301.000000,501.000000 
M178.668808,84.432724 
	C169.583206,106.373199 171.534729,128.764999 176.763046,151.525299 
	C174.811905,151.525299 173.605820,151.793518 172.572968,151.483841 
	C162.128952,148.352493 151.456436,147.494446 140.596176,147.623230 
	C110.026283,147.985748 85.728256,160.885132 67.747940,185.104004 
	C54.348366,203.152802 48.459339,223.793457 50.489201,246.491821 
	C52.307228,266.821411 59.466709,284.939331 73.148743,300.057800 
	C97.954895,327.468231 129.241470,334.804321 164.651367,328.462891 
	C168.625931,327.751129 172.597549,327.022858 177.292496,326.171265 
	C176.579651,329.939301 176.162125,332.859406 175.464706,335.711121 
	C172.191330,349.095459 171.701279,362.535187 173.458725,376.229492 
	C179.432556,422.778473 225.647980,458.224945 272.705566,452.451019 
	C291.788361,450.109589 309.137726,444.240021 323.854156,431.534180 
	C350.573608,408.465057 359.811523,379.151093 354.780670,344.796814 
	C353.884827,338.679352 352.481476,332.636230 351.234406,326.153198 
	C353.399506,326.308929 354.719818,326.311432 356.009369,326.511719 
	C364.329590,327.804138 372.603729,329.878540 380.966095,330.323669 
	C406.774597,331.697540 429.666199,324.356812 448.866730,306.407379 
	C465.981506,290.407745 476.205597,270.905151 478.132324,247.663925 
	C480.597778,217.924500 470.795990,192.435303 448.981232,171.853653 
	C425.472992,149.674271 397.366699,144.141098 366.365326,149.397629 
	C361.651642,150.196869 356.942383,151.022369 351.812134,151.908035 
	C352.003876,150.111389 352.030212,149.456284 352.151306,148.819199 
	C352.368073,147.679108 352.647278,146.550995 352.891083,145.415863 
	C356.157471,130.207504 357.621368,115.009171 354.360901,99.520607 
	C343.469330,47.781021 295.282745,16.032433 243.690582,27.899708 
	C212.752777,35.016045 190.775116,53.776737 178.668808,84.432724 
z"/>
<path fill="#2B55C2" opacity="1.000000" stroke="none" 
	d="
M178.846802,84.089294 
	C190.775116,53.776737 212.752777,35.016045 243.690582,27.899708 
	C295.282745,16.032433 343.469330,47.781021 354.360901,99.520607 
	C357.621368,115.009171 356.157471,130.207504 352.891083,145.415863 
	C352.647278,146.550995 352.368073,147.679108 352.151306,148.819199 
	C352.030212,149.456284 352.003876,150.111389 351.812134,151.908035 
	C356.942383,151.022369 361.651642,150.196869 366.365326,149.397629 
	C397.366699,144.141098 425.472992,149.674271 448.981232,171.853653 
	C470.795990,192.435303 480.597778,217.924500 478.132324,247.663925 
	C476.205597,270.905151 465.981506,290.407745 448.866730,306.407379 
	C429.666199,324.356812 406.774597,331.697540 380.966095,330.323669 
	C372.603729,329.878540 364.329590,327.804138 356.009369,326.511719 
	C354.719818,326.311432 353.399506,326.308929 351.234406,326.153198 
	C352.481476,332.636230 353.884827,338.679352 354.780670,344.796814 
	C359.811523,379.151093 350.573608,408.465057 323.854156,431.534180 
	C309.137726,444.240021 291.788361,450.109589 272.705566,452.451019 
	C225.647980,458.224945 179.432556,422.778473 173.458725,376.229492 
	C171.701279,362.535187 172.191330,349.095459 175.464706,335.711121 
	C176.162125,332.859406 176.579651,329.939301 177.292496,326.171265 
	C172.597549,327.022858 168.625931,327.751129 164.651367,328.462891 
	C129.241470,334.804321 97.954895,327.468231 73.148743,300.057800 
	C59.466709,284.939331 52.307228,266.821411 50.489201,246.491821 
	C48.459339,223.793457 54.348366,203.152802 67.747940,185.104004 
	C85.728256,160.885132 110.026283,147.985748 140.596176,147.623230 
	C151.456436,147.494446 162.128952,148.352493 172.572968,151.483841 
	C173.605820,151.793518 174.811905,151.525299 176.763046,151.525299 
	C171.534729,128.764999 169.583206,106.373199 178.846802,84.089294 
M222.981995,378.006714 
	C222.981995,378.006714 223.005646,377.963806 223.161514,378.537476 
	C223.493912,379.019257 223.826309,379.501007 224.755264,380.272980 
	C233.941940,392.774292 246.317307,399.185883 261.785187,399.999237 
	C273.206116,400.599792 283.687592,398.382233 292.876465,391.168274 
	C303.722290,382.653534 311.084045,372.181885 312.620239,357.414734 
	C315.234039,350.028320 314.062073,342.907471 310.988251,335.540039 
	C310.988251,335.540039 310.971863,335.149017 310.878662,334.568970 
	C310.631439,334.041382 310.384216,333.513794 310.008148,332.561005 
	C310.008148,332.561005 309.993073,332.116913 309.909454,331.519012 
	C309.655609,330.976654 309.401764,330.434265 309.013000,329.522369 
	C309.013000,329.522369 308.999664,329.129211 308.965912,328.447571 
	C308.627167,327.626068 308.288422,326.804535 308.012085,325.999756 
	C308.012085,325.999756 307.984833,326.058350 307.902802,325.470764 
	C307.647736,324.939697 307.392639,324.408661 307.001160,323.532623 
	C307.001160,323.532623 306.983948,323.162109 306.767456,322.711060 
	C306.563995,322.447021 306.360535,322.182953 306.002655,321.569489 
	C306.002655,321.569489 305.996399,321.187561 305.781586,320.701050 
	C305.572479,320.414856 305.363373,320.128693 304.998993,319.531342 
	C304.998993,319.531342 304.996979,319.183624 304.776367,318.723022 
	C304.575714,318.448059 304.375061,318.173096 304.005432,317.563599 
	C304.005432,317.563599 303.997833,317.188843 303.787842,316.712708 
	C303.584686,316.431549 303.381561,316.150360 303.004761,315.545776 
	C303.004761,315.545776 302.992249,315.178955 302.772339,314.735046 
	C302.607880,314.446320 302.411407,314.181335 302.007019,313.585419 
	C302.007019,313.585419 301.982208,313.190247 301.762756,312.714752 
	C301.556641,312.433044 301.350525,312.151367 300.993774,311.559357 
	C300.993774,311.559357 300.982697,311.214630 300.751282,310.739929 
	C300.539581,310.458923 300.327911,310.177887 299.956543,309.610474 
	C299.956543,309.610474 299.965210,309.282715 299.932709,308.571686 
	C299.258575,307.720123 298.584442,306.868591 297.979309,306.020508 
	C297.979309,306.020508 297.970642,306.089050 297.833923,305.492828 
	C297.488831,305.000885 297.143738,304.508942 296.197998,303.723816 
	C287.087006,289.674438 276.530029,276.875793 263.268463,265.206207 
	C255.558594,274.331818 247.808838,282.882965 240.774536,291.986938 
	C231.852829,303.533661 222.715759,315.088501 219.078964,330.348511 
	C218.738098,331.680634 218.397232,333.012756 218.106476,334.675659 
	C218.106476,334.675659 217.926056,334.957367 217.524689,335.577026 
	C213.852097,344.129791 214.448471,353.039490 215.847870,361.848297 
	C216.409592,365.384186 218.478149,368.680695 220.002304,372.432709 
	C220.002304,372.432709 220.015030,372.806763 220.227310,373.280151 
	C220.432007,373.558685 220.636703,373.837189 220.996841,374.444550 
	C220.996841,374.444550 221.020599,374.807526 221.253571,375.273071 
	C221.464172,375.548889 221.674759,375.824738 222.043777,376.393005 
	C222.043777,376.393005 222.037796,376.725525 222.288864,377.212616 
	C222.536209,377.478302 222.783554,377.743988 222.981995,378.006714 
M106.031952,224.037003 
	C106.031952,224.037003 106.154686,223.970444 105.724945,224.522842 
	C105.496483,225.413315 105.268021,226.303787 105.044975,227.565674 
	C105.044975,227.565674 104.895889,227.905914 104.436234,228.485580 
	C104.230621,231.335617 104.025009,234.185654 103.940819,237.677078 
	C103.896111,238.107727 103.851395,238.538361 103.466423,239.702927 
	C102.056488,247.328018 104.283012,254.362793 107.224197,261.192596 
	C108.004852,263.005371 109.765312,264.396240 111.011650,265.983978 
	C111.011650,265.983978 111.027153,265.921539 111.171692,266.508087 
	C111.508362,266.997650 111.845032,267.487213 112.775864,268.263641 
	C113.383827,269.051208 113.987144,269.842407 114.600449,270.625763 
	C123.272003,281.701538 134.435501,288.092316 148.694061,287.882050 
	C154.670822,287.793915 160.805008,287.302002 166.558548,285.805450 
	C174.760773,283.671906 183.137100,281.326385 190.594177,277.447205 
	C198.699478,273.230804 206.195541,267.592407 213.304001,261.775757 
	C221.692444,254.911713 229.380814,247.192108 238.459793,238.843811 
	C225.714630,227.892288 214.526688,216.719070 201.762070,207.803131 
	C191.512817,200.644119 180.062836,194.773911 167.191910,192.507263 
	C154.561066,190.282883 142.113525,189.726807 130.282974,195.165710 
	C125.014175,197.587952 119.861320,201.006226 115.814781,205.114059 
	C112.418144,208.562149 110.703308,213.666962 107.767296,218.536728 
	C107.512611,219.408005 107.257927,220.279282 106.998764,221.527771 
	C106.998764,221.527771 106.866165,221.880920 106.524963,222.391571 
	C106.383018,222.980850 106.241074,223.570129 106.031952,224.037003 
M310.896881,111.467804 
	C310.612762,110.954926 310.328613,110.442055 309.864258,109.744347 
	C309.864258,109.744347 309.948578,109.500359 309.761841,108.919136 
	C309.562561,108.566216 309.363251,108.213287 309.016632,107.515739 
	C309.016632,107.515739 309.011230,107.140991 308.972626,106.419144 
	C308.059204,104.900215 307.145813,103.381287 306.030212,101.580338 
	C306.030212,101.580338 306.007416,101.234085 305.965607,100.522934 
	C305.270325,99.691689 304.575012,98.860435 303.964264,98.030357 
	C303.964264,98.030357 303.962280,98.114876 303.809784,97.518379 
	C303.248199,96.953957 302.686615,96.389526 301.947876,95.620026 
	C301.947876,95.620026 301.970795,95.349991 301.666382,94.825813 
	C301.371002,94.553955 301.075623,94.282097 300.383423,93.903397 
	C300.126465,93.744362 299.998199,93.513748 299.686859,92.728760 
	C299.392334,92.486450 299.097839,92.244141 298.398163,91.904465 
	C298.136108,91.746109 298.003021,91.513863 297.684723,90.730606 
	C297.390991,90.490730 297.097260,90.250854 296.138062,89.885803 
	C285.023804,80.828148 272.136719,77.665482 258.141266,79.105370 
	C252.660934,79.669205 246.572571,80.227295 242.059952,82.944801 
	C234.823593,87.302536 227.569153,92.265121 222.685349,100.416130 
	C222.462387,100.965317 222.239426,101.514503 221.996613,102.005798 
	C221.996613,102.005798 222.057816,102.006905 221.400940,102.241570 
	C217.433167,105.795021 216.904755,110.483772 217.126541,115.638268 
	C217.126541,115.638268 216.966110,115.830200 216.310699,116.275436 
	C215.901550,121.613716 215.159210,126.956200 215.226624,132.288452 
	C215.259323,134.876434 216.808395,137.445236 217.887222,140.856644 
	C218.132263,142.640762 218.082626,144.529053 218.670395,146.192032 
	C222.354904,156.616623 225.795853,167.168106 232.940308,175.948929 
	C241.326370,186.255768 249.408615,196.823120 258.104736,206.859818 
	C264.175293,213.866211 264.534607,213.550400 270.563995,206.892960 
	C271.122101,206.276749 271.769775,205.741302 272.323395,205.121490 
	C277.281555,199.570480 282.658569,194.329880 287.089447,188.384659 
	C296.763489,175.404312 305.904907,162.037201 310.593506,145.470016 
	C313.404083,136.082413 315.826752,126.676552 311.998779,117.001488 
	C311.998779,117.001488 311.970490,117.066208 312.008514,116.309814 
	C311.694580,114.884132 311.380646,113.458450 310.896881,111.467804 
M390.346313,191.634598 
	C382.645782,191.093521 374.951080,190.361710 367.241241,190.126770 
	C364.907440,190.055649 362.531708,191.360107 359.728851,192.711823 
	C358.125519,192.995941 356.346344,192.926208 354.947205,193.621292 
	C345.468201,198.330444 335.680573,202.579529 326.740234,208.172211 
	C314.739716,215.679184 304.385132,225.367264 294.495819,235.537186 
	C291.427368,238.692764 291.539490,241.141739 294.390442,243.796814 
	C300.231720,249.236725 306.378876,254.356049 312.093689,259.921967 
	C319.710663,267.340546 329.175354,271.779236 338.139069,277.105408 
	C347.135406,282.450958 356.852142,286.484406 366.919403,287.625610 
	C377.425781,288.816620 388.250610,288.917786 398.476379,283.165100 
	C415.081573,273.823547 423.411102,260.131653 424.310913,241.340073 
	C425.447510,217.602310 412.099060,198.106598 390.346313,191.634598 
z"/>
<path fill="#FEFEFF" opacity="1.000000" stroke="none" 
	d="
M390.874268,192.175293 
	C412.099060,198.106598 425.447510,217.602310 424.310913,241.340073 
	C423.411102,260.131653 415.081573,273.823547 398.476379,283.165100 
	C388.250610,288.917786 377.425781,288.816620 366.919403,287.625610 
	C356.852142,286.484406 347.135406,282.450958 338.139069,277.105408 
	C329.175354,271.779236 319.710663,267.340546 312.093689,259.921967 
	C306.378876,254.356049 300.231720,249.236725 294.390442,243.796814 
	C291.539490,241.141739 291.427368,238.692764 294.495819,235.537186 
	C304.385132,225.367264 314.739716,215.679184 326.740234,208.172211 
	C335.680573,202.579529 345.468201,198.330444 354.947205,193.621292 
	C356.346344,192.926208 358.125519,192.995941 360.377655,192.375580 
	C370.975739,192.084671 380.924988,192.129974 390.874268,192.175293 
M395.932617,256.360901 
	C404.256592,243.112198 403.250793,222.723679 386.269928,213.148682 
	C375.750122,207.216858 364.617157,208.654007 354.199463,212.457275 
	C339.782104,217.720779 327.146606,226.473312 315.204865,236.102737 
	C312.838867,238.010605 312.436920,239.729858 315.197815,241.990982 
	C328.006683,252.481232 341.451904,261.540924 357.618805,266.458069 
	C372.526184,270.992126 385.150177,269.157318 395.932617,256.360901 
z"/>
<path fill="#FFFFFE" opacity="1.000000" stroke="none" 
	d="
M104.895889,227.905914 
	C104.895889,227.905914 105.044975,227.565674 105.330048,227.166183 
	C105.794975,225.834610 105.974831,224.902527 106.154694,223.970444 
	C106.154686,223.970444 106.031952,224.037003 106.336609,223.912750 
	C106.716240,223.152634 106.791206,222.516769 106.866165,221.880920 
	C106.866165,221.880920 106.998764,221.527771 107.286430,221.132507 
	C107.797356,219.837601 108.020615,218.937927 108.243866,218.038269 
	C110.703308,213.666962 112.418144,208.562149 115.814781,205.114059 
	C119.861320,201.006226 125.014175,197.587952 130.282974,195.165710 
	C142.113525,189.726807 154.561066,190.282883 167.191910,192.507263 
	C180.062836,194.773911 191.512817,200.644119 201.762070,207.803131 
	C214.526688,216.719070 225.714630,227.892288 238.459793,238.843811 
	C229.380814,247.192108 221.692444,254.911713 213.304001,261.775757 
	C206.195541,267.592407 198.699478,273.230804 190.594177,277.447205 
	C183.137100,281.326385 174.760773,283.671906 166.558548,285.805450 
	C160.805008,287.302002 154.670822,287.793915 148.694061,287.882050 
	C134.435501,288.092316 123.272003,281.701538 114.600449,270.625763 
	C113.987144,269.842407 113.383827,269.051208 112.401016,267.818085 
	C111.693169,266.888855 111.360168,266.405212 111.027161,265.921539 
	C111.027153,265.921539 111.011650,265.983978 110.986282,265.620789 
	C106.372299,257.094513 104.096466,248.302002 103.806686,238.969009 
	C103.851395,238.538361 103.896111,238.107727 103.959839,236.943466 
	C104.284546,233.441879 104.590225,230.673889 104.895889,227.905914 
M187.836029,259.341949 
	C197.953110,253.562729 207.956680,247.630295 216.105042,239.019745 
	C215.218414,238.023483 214.730103,237.334808 214.109940,236.798630 
	C201.848587,226.198242 188.214905,217.729446 172.968399,212.317657 
	C163.791687,209.060379 154.178192,207.281693 144.609253,211.938354 
	C129.964523,219.065140 123.710228,233.378220 128.611511,248.887726 
	C133.487656,264.317657 146.044327,270.917480 162.151199,268.232574 
	C170.740036,266.800812 178.879837,262.675385 187.836029,259.341949 
z"/>
<path fill="#FFFFFE" opacity="1.000000" stroke="none" 
	d="
M303.997833,317.188843 
	C303.997833,317.188843 304.005432,317.563599 304.088806,318.010620 
	C304.447113,318.699615 304.722046,318.941620 304.996979,319.183624 
	C304.996979,319.183624 304.998993,319.531342 305.067688,319.980713 
	C305.423065,320.682587 305.709717,320.935089 305.996399,321.187561 
	C305.996399,321.187561 306.002655,321.569489 306.067627,322.023560 
	C306.416412,322.705780 306.700165,322.933960 306.983948,323.162109 
	C306.983948,323.162109 307.001160,323.532623 307.019958,324.020813 
	C307.354156,325.025452 307.669495,325.541901 307.984833,326.058350 
	C307.984833,326.058350 308.012085,325.999756 307.992737,326.343689 
	C308.315491,327.501465 308.657593,328.315338 308.999664,329.129211 
	C308.999664,329.129211 309.013000,329.522369 309.026489,330.030090 
	C309.357666,331.064148 309.675385,331.590546 309.993073,332.116913 
	C309.993073,332.116913 310.008148,332.561005 310.015808,333.090027 
	C310.339630,334.129028 310.655731,334.639008 310.971863,335.149017 
	C310.971863,335.149017 310.988251,335.540039 310.989319,336.161072 
	C311.380585,343.860779 311.770721,350.939453 312.160889,358.018127 
	C311.084045,372.181885 303.722290,382.653534 292.876465,391.168274 
	C283.687592,398.382233 273.206116,400.599792 261.785187,399.999237 
	C246.317307,399.185883 233.941940,392.774292 224.380478,379.835327 
	C223.672348,378.919739 223.338989,378.441772 223.005646,377.963806 
	C223.005646,377.963806 222.981995,378.006714 222.953796,377.723724 
	C222.629669,377.202332 222.333740,376.963928 222.037796,376.725525 
	C222.037796,376.725525 222.043777,376.393005 221.974213,375.956116 
	C221.609955,375.282013 221.315277,375.044769 221.020599,374.807526 
	C221.020599,374.807526 220.996841,374.444550 220.935944,373.991638 
	C220.588364,373.294739 220.301697,373.050751 220.015030,372.806763 
	C220.015030,372.806763 220.002304,372.432709 219.951736,371.864471 
	C218.613770,363.569214 216.875641,355.880341 216.216995,348.100098 
	C215.852814,343.798248 217.297028,339.343292 217.926056,334.957367 
	C217.926056,334.957367 218.106476,334.675659 218.346527,334.283661 
	C218.939926,332.576935 219.293259,331.262177 219.646576,329.947449 
	C222.715759,315.088501 231.852829,303.533661 240.774536,291.986938 
	C247.808838,282.882965 255.558594,274.331818 263.268463,265.206207 
	C276.530029,276.875793 287.087006,289.674438 296.585510,304.174072 
	C297.305573,305.112579 297.638092,305.600800 297.970642,306.089050 
	C297.970642,306.089050 297.979309,306.020508 298.006287,306.345947 
	C298.677277,307.541840 299.321228,308.412262 299.965210,309.282715 
	C299.965210,309.282715 299.956543,309.610474 300.023804,310.047913 
	C300.388275,310.728424 300.685486,310.971527 300.982697,311.214630 
	C300.982697,311.214630 300.993774,311.559357 301.054291,312.006165 
	C301.403931,312.698730 301.693085,312.944489 301.982208,313.190247 
	C301.982208,313.190247 302.007019,313.585419 302.092743,314.034363 
	C302.449707,314.715210 302.720978,314.947083 302.992249,315.178955 
	C302.992249,315.178955 303.004761,315.545776 303.095673,315.989685 
	C303.457001,316.685333 303.727417,316.937073 303.997833,317.188843 
M293.567139,353.602112 
	C293.425415,348.321991 293.886658,342.941437 293.026855,337.780975 
	C290.624847,323.364685 282.519012,311.513397 274.730774,299.600372 
	C271.779694,295.086334 268.517670,290.775543 265.371490,286.335663 
	C264.017548,287.091156 263.406189,287.341064 262.907013,287.733643 
	C262.265350,288.238251 261.624359,288.789978 261.136353,289.436981 
	C248.925552,305.626465 237.065994,322.229431 234.420563,342.929688 
	C232.249634,359.916962 243.663635,374.023590 261.241302,375.832703 
	C274.971771,377.245880 289.360382,368.279358 293.567139,353.602112 
z"/>
<path fill="#FFFEFE" opacity="1.000000" stroke="none" 
	d="
M297.998871,91.207718 
	C298.003021,91.513863 298.136108,91.746109 298.730621,92.216446 
	C299.374939,92.756149 299.686768,92.983856 299.998627,93.211563 
	C299.998199,93.513748 300.126465,93.744362 300.707947,94.238441 
	C301.345245,94.832321 301.658020,95.091156 301.970795,95.349991 
	C301.970795,95.349991 301.947876,95.620026 302.067505,96.036240 
	C302.778839,97.006592 303.370575,97.560738 303.962280,98.114876 
	C303.962280,98.114876 303.964264,98.030357 304.005005,98.348984 
	C304.699646,99.523109 305.353516,100.378601 306.007416,101.234085 
	C306.007416,101.234085 306.030212,101.580338 306.209778,102.055717 
	C307.263306,104.067734 308.137268,105.604362 309.011230,107.140991 
	C309.011230,107.140991 309.016632,107.515739 309.066833,108.017426 
	C309.394226,108.846199 309.671387,109.173279 309.948578,109.500366 
	C309.948578,109.500359 309.864258,109.744347 309.931366,110.181290 
	C310.324341,111.420364 310.650208,112.222504 310.971375,113.390671 
	C311.301300,114.859871 311.635895,115.963036 311.970490,117.066208 
	C311.970490,117.066208 311.998779,117.001488 311.979187,117.460526 
	C311.354156,127.297813 310.748718,136.676056 310.143311,146.054306 
	C305.904907,162.037201 296.763489,175.404312 287.089447,188.384659 
	C282.658569,194.329880 277.281555,199.570480 272.323395,205.121490 
	C271.769775,205.741302 271.122101,206.276749 270.563995,206.892960 
	C264.534607,213.550400 264.175293,213.866211 258.104736,206.859818 
	C249.408615,196.823120 241.326370,186.255768 232.940308,175.948929 
	C225.795853,167.168106 222.354904,156.616623 218.670395,146.192032 
	C218.082626,144.529053 218.132263,142.640762 217.699066,140.045166 
	C217.329300,131.432541 217.147705,123.631371 216.966110,115.830200 
	C216.966110,115.830200 217.126541,115.638268 217.376862,115.245476 
	C219.104050,110.570755 220.580933,106.288834 222.057816,102.006905 
	C222.057816,102.006905 221.996613,102.005798 222.276917,101.880608 
	C222.744858,101.170914 222.932510,100.586411 223.120163,100.001907 
	C227.569153,92.265121 234.823593,87.302536 242.059952,82.944801 
	C246.572571,80.227295 252.660934,79.669205 258.141266,79.105370 
	C272.136719,77.665482 285.023804,80.828148 296.597290,90.212914 
	C297.370636,90.762589 297.684753,90.985153 297.998871,91.207718 
M284.961609,162.508255 
	C289.584076,153.162811 293.535706,143.825943 294.142059,132.997253 
	C295.174896,114.552872 276.207642,97.302559 255.487549,103.843010 
	C245.628387,106.955139 239.435501,113.255493 235.775970,122.773964 
	C232.413101,131.520813 234.447861,139.898117 237.111542,148.053650 
	C241.689880,162.071503 250.061584,174.099731 258.622345,185.932953 
	C260.226898,188.150818 262.280548,190.043762 265.000031,193.052643 
	C271.874420,182.655975 278.302032,172.934982 284.961609,162.508255 
z"/>
<path fill="#3455A9" opacity="1.000000" stroke="none" 
	d="
M217.725372,335.267212 
	C217.297028,339.343292 215.852814,343.798248 216.216995,348.100098 
	C216.875641,355.880341 218.613770,363.569214 219.881012,371.691193 
	C218.478149,368.680695 216.409592,365.384186 215.847870,361.848297 
	C214.448471,353.039490 213.852097,344.129791 217.725372,335.267212 
z"/>
<path fill="#3958AA" opacity="1.000000" stroke="none" 
	d="
M103.636551,239.335968 
	C104.096466,248.302002 106.372299,257.094513 111.018402,265.619202 
	C109.765312,264.396240 108.004852,263.005371 107.224197,261.192596 
	C104.283012,254.362793 102.056488,247.328018 103.636551,239.335968 
z"/>
<path fill="#3557A8" opacity="1.000000" stroke="none" 
	d="
M310.368408,145.762161 
	C310.748718,136.676056 311.354156,127.297813 311.946716,117.446594 
	C315.826752,126.676552 313.404083,136.082413 310.368408,145.762161 
z"/>
<path fill="#3C5794" opacity="1.000000" stroke="none" 
	d="
M390.610291,191.904938 
	C380.924988,192.129974 370.975739,192.084671 360.600830,192.036911 
	C362.531708,191.360107 364.907440,190.055649 367.241241,190.126770 
	C374.951080,190.361710 382.645782,191.093521 390.610291,191.904938 
z"/>
<path fill="#3959A7" opacity="1.000000" stroke="none" 
	d="
M216.638397,116.052818 
	C217.147705,123.631371 217.329300,131.432541 217.590942,139.628204 
	C216.808395,137.445236 215.259323,134.876434 215.226624,132.288452 
	C215.159210,126.956200 215.901550,121.613716 216.638397,116.052818 
z"/>
<path fill="#3859A9" opacity="1.000000" stroke="none" 
	d="
M312.390564,357.716431 
	C311.770721,350.939453 311.380585,343.860779 311.051086,336.346741 
	C314.062073,342.907471 315.234039,350.028320 312.390564,357.716431 
z"/>
<path fill="#3959A7" opacity="1.000000" stroke="none" 
	d="
M221.729370,102.124237 
	C220.580933,106.288834 219.104050,110.570755 217.342712,115.125153 
	C216.904755,110.483772 217.433167,105.795021 221.729370,102.124237 
z"/>
<path fill="#3958AA" opacity="1.000000" stroke="none" 
	d="
M104.666061,228.195740 
	C104.590225,230.673889 104.284546,233.441879 103.899132,236.622772 
	C104.025009,234.185654 104.230621,231.335617 104.666061,228.195740 
z"/>
<path fill="#3757A1" opacity="1.000000" stroke="none" 
	d="
M308.991943,106.780067 
	C308.137268,105.604362 307.263306,104.067734 306.310883,102.196732 
	C307.145813,103.381287 308.059204,104.900215 308.991943,106.780067 
z"/>
<path fill="#3757A1" opacity="1.000000" stroke="none" 
	d="
M305.986511,100.878510 
	C305.353516,100.378601 304.699646,99.523109 303.962769,98.348404 
	C304.575012,98.860435 305.270325,99.691689 305.986511,100.878510 
z"/>
<path fill="#3557A8" opacity="1.000000" stroke="none" 
	d="
M311.989502,116.688011 
	C311.635895,115.963036 311.301300,114.859871 310.990753,113.142517 
	C311.014832,112.528336 311.066711,112.032768 311.066711,112.032768 
	C311.380646,113.458450 311.694580,114.884132 311.989502,116.688011 
z"/>
<path fill="#3556A5" opacity="1.000000" stroke="none" 
	d="
M299.948975,308.927185 
	C299.321228,308.412262 298.677277,307.541840 297.971802,306.344208 
	C298.584442,306.868591 299.258575,307.720123 299.948975,308.927185 
z"/>
<path fill="#3455A9" opacity="1.000000" stroke="none" 
	d="
M219.362762,330.147980 
	C219.293259,331.262177 218.939926,332.576935 218.321487,334.118286 
	C218.397232,333.012756 218.738098,331.680634 219.362762,330.147980 
z"/>
<path fill="#3757A1" opacity="1.000000" stroke="none" 
	d="
M303.886047,97.816628 
	C303.370575,97.560738 302.778839,97.006592 302.156067,96.138779 
	C302.686615,96.389526 303.248199,96.953957 303.886047,97.816628 
z"/>
<path fill="#3958AA" opacity="1.000000" stroke="none" 
	d="
M108.005585,218.287506 
	C108.020615,218.937927 107.797356,219.837601 107.288666,220.943909 
	C107.257927,220.279282 107.512611,219.408005 108.005585,218.287506 
z"/>
<path fill="#3757A1" opacity="1.000000" stroke="none" 
	d="
M310.981812,111.750290 
	C311.066711,112.032768 311.014832,112.528336 310.995453,112.776489 
	C310.650208,112.222504 310.324341,111.420364 310.021484,110.273705 
	C310.328613,110.442055 310.612762,110.954926 310.981812,111.750290 
z"/>
<path fill="#3958AA" opacity="1.000000" stroke="none" 
	d="
M105.939819,224.246643 
	C105.974831,224.902527 105.794975,225.834610 105.327332,226.980469 
	C105.268021,226.303787 105.496483,225.413315 105.939819,224.246643 
z"/>
<path fill="#3859A9" opacity="1.000000" stroke="none" 
	d="
M308.982788,328.788391 
	C308.657593,328.315338 308.315491,327.501465 307.961548,326.335327 
	C308.288422,326.804535 308.627167,327.626068 308.982788,328.788391 
z"/>
<path fill="#3455A9" opacity="1.000000" stroke="none" 
	d="
M223.083588,378.250641 
	C223.338989,378.441772 223.672348,378.919739 224.082214,379.690247 
	C223.826309,379.501007 223.493912,379.019257 223.083588,378.250641 
z"/>
<path fill="#3859A9" opacity="1.000000" stroke="none" 
	d="
M310.925262,334.859009 
	C310.655731,334.639008 310.339630,334.129028 310.080261,333.302612 
	C310.384216,333.513794 310.631439,334.041382 310.925262,334.859009 
z"/>
<path fill="#3556A5" opacity="1.000000" stroke="none" 
	d="
M297.902283,305.790955 
	C297.638092,305.600800 297.305573,305.112579 296.885864,304.320679 
	C297.143738,304.508942 297.488831,305.000885 297.902283,305.790955 
z"/>
<path fill="#3859A9" opacity="1.000000" stroke="none" 
	d="
M309.951263,331.817963 
	C309.675385,331.590546 309.357666,331.064148 309.093933,330.214844 
	C309.401764,330.434265 309.655609,330.976654 309.951263,331.817963 
z"/>
<path fill="#3859A9" opacity="1.000000" stroke="none" 
	d="
M307.943817,325.764557 
	C307.669495,325.541901 307.354156,325.025452 307.088165,324.193298 
	C307.392639,324.408661 307.647736,324.939697 307.943817,325.764557 
z"/>
<path fill="#3958AA" opacity="1.000000" stroke="none" 
	d="
M106.695572,222.136246 
	C106.791206,222.516769 106.716240,223.152634 106.370201,223.973938 
	C106.241074,223.570129 106.383018,222.980850 106.695572,222.136246 
z"/>
<path fill="#3958AA" opacity="1.000000" stroke="none" 
	d="
M111.099426,266.214813 
	C111.360168,266.405212 111.693169,266.888855 112.103943,267.674652 
	C111.845032,267.487213 111.508362,266.997650 111.099426,266.214813 
z"/>
<path fill="#3959A7" opacity="1.000000" stroke="none" 
	d="
M222.902756,100.209015 
	C222.932510,100.586411 222.744858,101.170914 222.286835,101.909561 
	C222.239426,101.514503 222.462387,100.965317 222.902756,100.209015 
z"/>
<path fill="#3757A1" opacity="1.000000" stroke="none" 
	d="
M297.841797,90.969162 
	C297.684753,90.985153 297.370636,90.762589 296.930023,90.275497 
	C297.097260,90.250854 297.390991,90.490730 297.841797,90.969162 
z"/>
<path fill="#3556A5" opacity="1.000000" stroke="none" 
	d="
M303.892822,316.950775 
	C303.727417,316.937073 303.457001,316.685333 303.182495,316.151367 
	C303.381561,316.150360 303.584686,316.431549 303.892822,316.950775 
z"/>
<path fill="#3757A1" opacity="1.000000" stroke="none" 
	d="
M309.855225,109.209747 
	C309.671387,109.173279 309.394226,108.846199 309.140503,108.189743 
	C309.363251,108.213287 309.562561,108.566216 309.855225,109.209747 
z"/>
<path fill="#3455A9" opacity="1.000000" stroke="none" 
	d="
M222.163330,376.969055 
	C222.333740,376.963928 222.629669,377.202332 222.978271,377.725220 
	C222.783554,377.743988 222.536209,377.478302 222.163330,376.969055 
z"/>
<path fill="#3455A9" opacity="1.000000" stroke="none" 
	d="
M221.137085,375.040283 
	C221.315277,375.044769 221.609955,375.282013 221.894989,375.809906 
	C221.674759,375.824738 221.464172,375.548889 221.137085,375.040283 
z"/>
<path fill="#3455A9" opacity="1.000000" stroke="none" 
	d="
M220.121170,373.043457 
	C220.301697,373.050751 220.588364,373.294739 220.858215,373.827209 
	C220.636703,373.837189 220.432007,373.558685 220.121170,373.043457 
z"/>
<path fill="#3757A1" opacity="1.000000" stroke="none" 
	d="
M301.818604,95.087906 
	C301.658020,95.091156 301.345245,94.832321 300.906372,94.291862 
	C301.075623,94.282097 301.371002,94.553955 301.818604,95.087906 
z"/>
<path fill="#3556A5" opacity="1.000000" stroke="none" 
	d="
M300.867004,310.977295 
	C300.685486,310.971527 300.388275,310.728424 300.103638,310.191101 
	C300.327911,310.177887 300.539581,310.458923 300.867004,310.977295 
z"/>
<path fill="#3556A5" opacity="1.000000" stroke="none" 
	d="
M301.872498,312.952515 
	C301.693085,312.944489 301.403931,312.698730 301.129608,312.161316 
	C301.350525,312.151367 301.556641,312.433044 301.872498,312.952515 
z"/>
<path fill="#3757A1" opacity="1.000000" stroke="none" 
	d="
M299.842743,92.970161 
	C299.686768,92.983856 299.374939,92.756149 298.933197,92.265137 
	C299.097839,92.244141 299.392334,92.486450 299.842743,92.970161 
z"/>
<path fill="#3556A5" opacity="1.000000" stroke="none" 
	d="
M302.882294,314.957001 
	C302.720978,314.947083 302.449707,314.715210 302.180725,314.211731 
	C302.411407,314.181335 302.607880,314.446320 302.882294,314.957001 
z"/>
<path fill="#3859A9" opacity="1.000000" stroke="none" 
	d="
M306.875702,322.936584 
	C306.700165,322.933960 306.416412,322.705780 306.144836,322.198273 
	C306.360535,322.182953 306.563995,322.447021 306.875702,322.936584 
z"/>
<path fill="#3556A5" opacity="1.000000" stroke="none" 
	d="
M305.888977,320.944305 
	C305.709717,320.935089 305.423065,320.682587 305.145325,320.136292 
	C305.363373,320.128693 305.572479,320.414856 305.888977,320.944305 
z"/>
<path fill="#3556A5" opacity="1.000000" stroke="none" 
	d="
M304.886658,318.953308 
	C304.722046,318.941620 304.447113,318.699615 304.173279,318.177887 
	C304.375061,318.173096 304.575714,318.448059 304.886658,318.953308 
z"/>
<path fill="#F4B21B" opacity="1.000000" stroke="none" 
	d="
M395.741699,256.675720 
	C385.150177,269.157318 372.526184,270.992126 357.618805,266.458069 
	C341.451904,261.540924 328.006683,252.481232 315.197815,241.990982 
	C312.436920,239.729858 312.838867,238.010605 315.204865,236.102737 
	C327.146606,226.473312 339.782104,217.720779 354.199463,212.457275 
	C364.617157,208.654007 375.750122,207.216858 386.269928,213.148682 
	C403.250793,222.723679 404.256592,243.112198 395.741699,256.675720 
z"/>
<path fill="#F3B21C" opacity="1.000000" stroke="none" 
	d="
M187.529175,259.553833 
	C178.879837,262.675385 170.740036,266.800812 162.151199,268.232574 
	C146.044327,270.917480 133.487656,264.317657 128.611511,248.887726 
	C123.710228,233.378220 129.964523,219.065140 144.609253,211.938354 
	C154.178192,207.281693 163.791687,209.060379 172.968399,212.317657 
	C188.214905,217.729446 201.848587,226.198242 214.109940,236.798630 
	C214.730103,237.334808 215.218414,238.023483 216.105042,239.019745 
	C207.956680,247.630295 197.953110,253.562729 187.529175,259.553833 
z"/>
<path fill="#F4B31C" opacity="1.000000" stroke="none" 
	d="
M293.345703,353.958862 
	C289.360382,368.279358 274.971771,377.245880 261.241302,375.832703 
	C243.663635,374.023590 232.249634,359.916962 234.420563,342.929688 
	C237.065994,322.229431 248.925552,305.626465 261.136353,289.436981 
	C261.624359,288.789978 262.265350,288.238251 262.907013,287.733643 
	C263.406189,287.341064 264.017548,287.091156 265.371490,286.335663 
	C268.517670,290.775543 271.779694,295.086334 274.730774,299.600372 
	C282.519012,311.513397 290.624847,323.364685 293.026855,337.780975 
	C293.886658,342.941437 293.425415,348.321991 293.345703,353.958862 
z"/>
<path fill="#F4B31C" opacity="1.000000" stroke="none" 
	d="
M284.845642,162.861115 
	C278.302032,172.934982 271.874420,182.655975 265.000031,193.052643 
	C262.280548,190.043762 260.226898,188.150818 258.622345,185.932953 
	C250.061584,174.099731 241.689880,162.071503 237.111542,148.053650 
	C234.447861,139.898117 232.413101,131.520813 235.775970,122.773964 
	C239.435501,113.255493 245.628387,106.955139 255.487549,103.843010 
	C276.207642,97.302559 295.174896,114.552872 294.142059,132.997253 
	C293.535706,143.825943 289.584076,153.162811 284.845642,162.861115 
z"/>
</svg>